%FSLAX45Y45*%
G04 Gerber Fmt 4.5, Leading zero omitted, Abs format (unit mm)*
G04 Created by KiCad (PCBNEW (5.1.5)-3) date 2020-05-24 13:05:51*
%MOMM*%
%LPD*%
G04 APERTURE LIST*
%TA.AperFunction,Profile*%
%ADD10C,0.050000*%
%TD*%
%ADD11C,0.200000*%
%ADD12C,0.300000*%
G04 APERTURE END LIST*
D10*
X9650000Y-8235000D02*
X14535000Y-8235000D01*
X9650000Y-4660000D02*
X9650000Y-8235000D01*
X14535000Y-4660000D02*
X9650000Y-4660000D01*
X14535000Y-8235000D02*
X14535000Y-4660000D01*
D11*
X11045000Y-5635000D02*
X11085000Y-5675000D01*
X11085000Y-5635000D02*
X11045000Y-5675000D01*
X11140000Y-7405000D02*
X11180000Y-7445000D01*
X11180000Y-7405000D02*
X11140000Y-7445000D01*
X11245000Y-5560000D02*
X11285000Y-5600000D01*
X11285000Y-5560000D02*
X11245000Y-5600000D01*
X11325000Y-6785000D02*
X11365000Y-6825000D01*
X11365000Y-6785000D02*
X11325000Y-6825000D01*
X11880000Y-5935000D02*
G75*
G03X11880000Y-5935000I-40000J0D01*
G01*
X11880000Y-6185000D02*
G75*
G03X11880000Y-6185000I-40000J0D01*
G01*
X10330000Y-7225000D02*
G75*
G03X10330000Y-7225000I-40000J0D01*
G01*
X10580000Y-7225000D02*
G75*
G03X10580000Y-7225000I-40000J0D01*
G01*
X10580000Y-6485000D02*
G75*
G03X10580000Y-6485000I-40000J0D01*
G01*
X10580000Y-6735000D02*
G75*
G03X10580000Y-6735000I-40000J0D01*
G01*
X11880000Y-5445000D02*
G75*
G03X11880000Y-5445000I-40000J0D01*
G01*
X12130000Y-5445000D02*
G75*
G03X12130000Y-5445000I-40000J0D01*
G01*
X10580000Y-5925000D02*
G75*
G03X10580000Y-5925000I-40000J0D01*
G01*
X10580000Y-6175000D02*
G75*
G03X10580000Y-6175000I-40000J0D01*
G01*
X12655000Y-5450000D02*
G75*
G03X12655000Y-5450000I-40000J0D01*
G01*
X12905000Y-5450000D02*
G75*
G03X12905000Y-5450000I-40000J0D01*
G01*
X13505000Y-4945000D02*
G75*
G03X13505000Y-4945000I-40000J0D01*
G01*
X13505000Y-5295000D02*
G75*
G03X13505000Y-5295000I-40000J0D01*
G01*
X12185000Y-5765000D02*
G75*
G03X12185000Y-5765000I-40000J0D01*
G01*
X12185000Y-6019000D02*
G75*
G03X12185000Y-6019000I-40000J0D01*
G01*
X12185000Y-6273000D02*
G75*
G03X12185000Y-6273000I-40000J0D01*
G01*
X12185000Y-6527000D02*
G75*
G03X12185000Y-6527000I-40000J0D01*
G01*
X12185000Y-6781000D02*
G75*
G03X12185000Y-6781000I-40000J0D01*
G01*
X12185000Y-7035000D02*
G75*
G03X12185000Y-7035000I-40000J0D01*
G01*
X12185000Y-7289000D02*
G75*
G03X12185000Y-7289000I-40000J0D01*
G01*
X12185000Y-7543000D02*
G75*
G03X12185000Y-7543000I-40000J0D01*
G01*
X12947000Y-5765000D02*
G75*
G03X12947000Y-5765000I-40000J0D01*
G01*
X12947000Y-6019000D02*
G75*
G03X12947000Y-6019000I-40000J0D01*
G01*
X12947000Y-6273000D02*
G75*
G03X12947000Y-6273000I-40000J0D01*
G01*
X12947000Y-6527000D02*
G75*
G03X12947000Y-6527000I-40000J0D01*
G01*
X12947000Y-6781000D02*
G75*
G03X12947000Y-6781000I-40000J0D01*
G01*
X12947000Y-7035000D02*
G75*
G03X12947000Y-7035000I-40000J0D01*
G01*
X12947000Y-7289000D02*
G75*
G03X12947000Y-7289000I-40000J0D01*
G01*
X12947000Y-7543000D02*
G75*
G03X12947000Y-7543000I-40000J0D01*
G01*
X11880000Y-6495000D02*
G75*
G03X11880000Y-6495000I-40000J0D01*
G01*
X11880000Y-6745000D02*
G75*
G03X11880000Y-6745000I-40000J0D01*
G01*
X10850000Y-5445000D02*
G75*
G03X10850000Y-5445000I-40000J0D01*
G01*
X10850000Y-5699000D02*
G75*
G03X10850000Y-5699000I-40000J0D01*
G01*
X10850000Y-5953000D02*
G75*
G03X10850000Y-5953000I-40000J0D01*
G01*
X10850000Y-6207000D02*
G75*
G03X10850000Y-6207000I-40000J0D01*
G01*
X10850000Y-6461000D02*
G75*
G03X10850000Y-6461000I-40000J0D01*
G01*
X10850000Y-6715000D02*
G75*
G03X10850000Y-6715000I-40000J0D01*
G01*
X10850000Y-6969000D02*
G75*
G03X10850000Y-6969000I-40000J0D01*
G01*
X10850000Y-7223000D02*
G75*
G03X10850000Y-7223000I-40000J0D01*
G01*
X11612000Y-5445000D02*
G75*
G03X11612000Y-5445000I-40000J0D01*
G01*
X11612000Y-5699000D02*
G75*
G03X11612000Y-5699000I-40000J0D01*
G01*
X11612000Y-5953000D02*
G75*
G03X11612000Y-5953000I-40000J0D01*
G01*
X11612000Y-6207000D02*
G75*
G03X11612000Y-6207000I-40000J0D01*
G01*
X11612000Y-6461000D02*
G75*
G03X11612000Y-6461000I-40000J0D01*
G01*
X11612000Y-6715000D02*
G75*
G03X11612000Y-6715000I-40000J0D01*
G01*
X11612000Y-6969000D02*
G75*
G03X11612000Y-6969000I-40000J0D01*
G01*
X11612000Y-7223000D02*
G75*
G03X11612000Y-7223000I-40000J0D01*
G01*
X13505000Y-7580000D02*
G75*
G03X13505000Y-7580000I-40000J0D01*
G01*
X13505000Y-7930000D02*
G75*
G03X13505000Y-7930000I-40000J0D01*
G01*
X10810000Y-4905000D02*
X10810000Y-5005000D01*
X10760000Y-4955000D02*
X10860000Y-4955000D01*
X11064000Y-4905000D02*
X11064000Y-5005000D01*
X11014000Y-4955000D02*
X11114000Y-4955000D01*
X11318000Y-4905000D02*
X11318000Y-5005000D01*
X11268000Y-4955000D02*
X11368000Y-4955000D01*
X11572000Y-4905000D02*
X11572000Y-5005000D01*
X11522000Y-4955000D02*
X11622000Y-4955000D01*
X14260000Y-4911000D02*
X14260000Y-5011000D01*
X14210000Y-4961000D02*
X14310000Y-4961000D01*
X14260000Y-5165000D02*
X14260000Y-5265000D01*
X14210000Y-5215000D02*
X14310000Y-5215000D01*
X13270000Y-6043000D02*
X13270000Y-6143000D01*
X13220000Y-6093000D02*
X13320000Y-6093000D01*
X13270000Y-6297000D02*
X13270000Y-6397000D01*
X13220000Y-6347000D02*
X13320000Y-6347000D01*
X13270000Y-6551000D02*
X13270000Y-6651000D01*
X13220000Y-6601000D02*
X13320000Y-6601000D01*
X13270000Y-6805000D02*
X13270000Y-6905000D01*
X13220000Y-6855000D02*
X13320000Y-6855000D01*
X10845000Y-7595000D02*
X10845000Y-7695000D01*
X10795000Y-7645000D02*
X10895000Y-7645000D01*
X11099000Y-7595000D02*
X11099000Y-7695000D01*
X11049000Y-7645000D02*
X11149000Y-7645000D01*
X11353000Y-7595000D02*
X11353000Y-7695000D01*
X11303000Y-7645000D02*
X11403000Y-7645000D01*
X11607000Y-7595000D02*
X11607000Y-7695000D01*
X11557000Y-7645000D02*
X11657000Y-7645000D01*
X14260000Y-7596000D02*
X14260000Y-7696000D01*
X14210000Y-7646000D02*
X14310000Y-7646000D01*
X14260000Y-7850000D02*
X14260000Y-7950000D01*
X14210000Y-7900000D02*
X14310000Y-7900000D01*
X10128138Y-5148138D02*
X10128138Y-4921862D01*
X9901862Y-4921862D01*
X9901862Y-5148138D01*
X10128138Y-5148138D01*
X10128138Y-7988138D02*
X10128138Y-7761862D01*
X9901862Y-7761862D01*
X9901862Y-7988138D01*
X10128138Y-7988138D01*
X14208138Y-6598138D02*
X14208138Y-6371862D01*
X13981862Y-6371862D01*
X13981862Y-6598138D01*
X14208138Y-6598138D01*
D12*
X9933928Y-8703214D02*
X9933928Y-8403214D01*
X10005357Y-8403214D01*
X10048214Y-8417500D01*
X10076786Y-8446072D01*
X10091071Y-8474643D01*
X10105357Y-8531786D01*
X10105357Y-8574643D01*
X10091071Y-8631786D01*
X10076786Y-8660357D01*
X10048214Y-8688929D01*
X10005357Y-8703214D01*
X9933928Y-8703214D01*
X10233928Y-8703214D02*
X10233928Y-8503214D01*
X10233928Y-8560357D02*
X10248214Y-8531786D01*
X10262500Y-8517500D01*
X10291071Y-8503214D01*
X10319643Y-8503214D01*
X10419643Y-8703214D02*
X10419643Y-8503214D01*
X10419643Y-8403214D02*
X10405357Y-8417500D01*
X10419643Y-8431786D01*
X10433928Y-8417500D01*
X10419643Y-8403214D01*
X10419643Y-8431786D01*
X10605357Y-8703214D02*
X10576786Y-8688929D01*
X10562500Y-8660357D01*
X10562500Y-8403214D01*
X10762500Y-8703214D02*
X10733928Y-8688929D01*
X10719643Y-8660357D01*
X10719643Y-8403214D01*
X11105357Y-8703214D02*
X11105357Y-8403214D01*
X11205357Y-8617500D01*
X11305357Y-8403214D01*
X11305357Y-8703214D01*
X11576786Y-8703214D02*
X11576786Y-8546072D01*
X11562500Y-8517500D01*
X11533928Y-8503214D01*
X11476786Y-8503214D01*
X11448214Y-8517500D01*
X11576786Y-8688929D02*
X11548214Y-8703214D01*
X11476786Y-8703214D01*
X11448214Y-8688929D01*
X11433928Y-8660357D01*
X11433928Y-8631786D01*
X11448214Y-8603214D01*
X11476786Y-8588929D01*
X11548214Y-8588929D01*
X11576786Y-8574643D01*
X11719643Y-8503214D02*
X11719643Y-8803214D01*
X11719643Y-8517500D02*
X11748214Y-8503214D01*
X11805357Y-8503214D01*
X11833928Y-8517500D01*
X11848214Y-8531786D01*
X11862500Y-8560357D01*
X11862500Y-8646072D01*
X11848214Y-8674643D01*
X11833928Y-8688929D01*
X11805357Y-8703214D01*
X11748214Y-8703214D01*
X11719643Y-8688929D01*
X11991071Y-8674643D02*
X12005357Y-8688929D01*
X11991071Y-8703214D01*
X11976786Y-8688929D01*
X11991071Y-8674643D01*
X11991071Y-8703214D01*
X11991071Y-8517500D02*
X12005357Y-8531786D01*
X11991071Y-8546072D01*
X11976786Y-8531786D01*
X11991071Y-8517500D01*
X11991071Y-8546072D01*
X9607500Y-9177500D02*
X9647500Y-9217500D01*
X9647500Y-9177500D02*
X9607500Y-9217500D01*
X9991071Y-9033214D02*
X10019643Y-9033214D01*
X10048214Y-9047500D01*
X10062500Y-9061786D01*
X10076786Y-9090357D01*
X10091071Y-9147500D01*
X10091071Y-9218929D01*
X10076786Y-9276072D01*
X10062500Y-9304643D01*
X10048214Y-9318929D01*
X10019643Y-9333214D01*
X9991071Y-9333214D01*
X9962500Y-9318929D01*
X9948214Y-9304643D01*
X9933928Y-9276072D01*
X9919643Y-9218929D01*
X9919643Y-9147500D01*
X9933928Y-9090357D01*
X9948214Y-9061786D01*
X9962500Y-9047500D01*
X9991071Y-9033214D01*
X10219643Y-9304643D02*
X10233928Y-9318929D01*
X10219643Y-9333214D01*
X10205357Y-9318929D01*
X10219643Y-9304643D01*
X10219643Y-9333214D01*
X10491071Y-9133214D02*
X10491071Y-9333214D01*
X10419643Y-9018929D02*
X10348214Y-9233214D01*
X10533928Y-9233214D01*
X10705357Y-9033214D02*
X10733928Y-9033214D01*
X10762500Y-9047500D01*
X10776786Y-9061786D01*
X10791071Y-9090357D01*
X10805357Y-9147500D01*
X10805357Y-9218929D01*
X10791071Y-9276072D01*
X10776786Y-9304643D01*
X10762500Y-9318929D01*
X10733928Y-9333214D01*
X10705357Y-9333214D01*
X10676786Y-9318929D01*
X10662500Y-9304643D01*
X10648214Y-9276072D01*
X10633928Y-9218929D01*
X10633928Y-9147500D01*
X10648214Y-9090357D01*
X10662500Y-9061786D01*
X10676786Y-9047500D01*
X10705357Y-9033214D01*
X10933928Y-9333214D02*
X10933928Y-9133214D01*
X10933928Y-9161786D02*
X10948214Y-9147500D01*
X10976786Y-9133214D01*
X11019643Y-9133214D01*
X11048214Y-9147500D01*
X11062500Y-9176072D01*
X11062500Y-9333214D01*
X11062500Y-9176072D02*
X11076786Y-9147500D01*
X11105357Y-9133214D01*
X11148214Y-9133214D01*
X11176786Y-9147500D01*
X11191071Y-9176072D01*
X11191071Y-9333214D01*
X11333928Y-9333214D02*
X11333928Y-9133214D01*
X11333928Y-9161786D02*
X11348214Y-9147500D01*
X11376786Y-9133214D01*
X11419643Y-9133214D01*
X11448214Y-9147500D01*
X11462500Y-9176072D01*
X11462500Y-9333214D01*
X11462500Y-9176072D02*
X11476786Y-9147500D01*
X11505357Y-9133214D01*
X11548214Y-9133214D01*
X11576786Y-9147500D01*
X11591071Y-9176072D01*
X11591071Y-9333214D01*
X12176786Y-9018929D02*
X11919643Y-9404643D01*
X12562500Y-9033214D02*
X12591071Y-9033214D01*
X12619643Y-9047500D01*
X12633928Y-9061786D01*
X12648214Y-9090357D01*
X12662500Y-9147500D01*
X12662500Y-9218929D01*
X12648214Y-9276072D01*
X12633928Y-9304643D01*
X12619643Y-9318929D01*
X12591071Y-9333214D01*
X12562500Y-9333214D01*
X12533928Y-9318929D01*
X12519643Y-9304643D01*
X12505357Y-9276072D01*
X12491071Y-9218929D01*
X12491071Y-9147500D01*
X12505357Y-9090357D01*
X12519643Y-9061786D01*
X12533928Y-9047500D01*
X12562500Y-9033214D01*
X12791071Y-9304643D02*
X12805357Y-9318929D01*
X12791071Y-9333214D01*
X12776786Y-9318929D01*
X12791071Y-9304643D01*
X12791071Y-9333214D01*
X12991071Y-9033214D02*
X13019643Y-9033214D01*
X13048214Y-9047500D01*
X13062500Y-9061786D01*
X13076786Y-9090357D01*
X13091071Y-9147500D01*
X13091071Y-9218929D01*
X13076786Y-9276072D01*
X13062500Y-9304643D01*
X13048214Y-9318929D01*
X13019643Y-9333214D01*
X12991071Y-9333214D01*
X12962500Y-9318929D01*
X12948214Y-9304643D01*
X12933928Y-9276072D01*
X12919643Y-9218929D01*
X12919643Y-9147500D01*
X12933928Y-9090357D01*
X12948214Y-9061786D01*
X12962500Y-9047500D01*
X12991071Y-9033214D01*
X13376786Y-9333214D02*
X13205357Y-9333214D01*
X13291071Y-9333214D02*
X13291071Y-9033214D01*
X13262500Y-9076072D01*
X13233928Y-9104643D01*
X13205357Y-9118929D01*
X13633928Y-9033214D02*
X13576786Y-9033214D01*
X13548214Y-9047500D01*
X13533928Y-9061786D01*
X13505357Y-9104643D01*
X13491071Y-9161786D01*
X13491071Y-9276072D01*
X13505357Y-9304643D01*
X13519643Y-9318929D01*
X13548214Y-9333214D01*
X13605357Y-9333214D01*
X13633928Y-9318929D01*
X13648214Y-9304643D01*
X13662500Y-9276072D01*
X13662500Y-9204643D01*
X13648214Y-9176072D01*
X13633928Y-9161786D01*
X13605357Y-9147500D01*
X13548214Y-9147500D01*
X13519643Y-9161786D01*
X13505357Y-9176072D01*
X13491071Y-9204643D01*
X13776786Y-9033214D02*
X13776786Y-9090357D01*
X13891071Y-9033214D02*
X13891071Y-9090357D01*
X14333928Y-9447500D02*
X14319643Y-9433214D01*
X14291071Y-9390357D01*
X14276786Y-9361786D01*
X14262500Y-9318929D01*
X14248214Y-9247500D01*
X14248214Y-9190357D01*
X14262500Y-9118929D01*
X14276786Y-9076072D01*
X14291071Y-9047500D01*
X14319643Y-9004643D01*
X14333928Y-8990357D01*
X14576786Y-9133214D02*
X14576786Y-9333214D01*
X14505357Y-9018929D02*
X14433928Y-9233214D01*
X14619643Y-9233214D01*
X14962500Y-9333214D02*
X14962500Y-9033214D01*
X15091071Y-9333214D02*
X15091071Y-9176072D01*
X15076786Y-9147500D01*
X15048214Y-9133214D01*
X15005357Y-9133214D01*
X14976786Y-9147500D01*
X14962500Y-9161786D01*
X15276786Y-9333214D02*
X15248214Y-9318929D01*
X15233928Y-9304643D01*
X15219643Y-9276072D01*
X15219643Y-9190357D01*
X15233928Y-9161786D01*
X15248214Y-9147500D01*
X15276786Y-9133214D01*
X15319643Y-9133214D01*
X15348214Y-9147500D01*
X15362500Y-9161786D01*
X15376786Y-9190357D01*
X15376786Y-9276072D01*
X15362500Y-9304643D01*
X15348214Y-9318929D01*
X15319643Y-9333214D01*
X15276786Y-9333214D01*
X15548214Y-9333214D02*
X15519643Y-9318929D01*
X15505357Y-9290357D01*
X15505357Y-9033214D01*
X15776786Y-9318929D02*
X15748214Y-9333214D01*
X15691071Y-9333214D01*
X15662500Y-9318929D01*
X15648214Y-9290357D01*
X15648214Y-9176072D01*
X15662500Y-9147500D01*
X15691071Y-9133214D01*
X15748214Y-9133214D01*
X15776786Y-9147500D01*
X15791071Y-9176072D01*
X15791071Y-9204643D01*
X15648214Y-9233214D01*
X15905357Y-9318929D02*
X15933928Y-9333214D01*
X15991071Y-9333214D01*
X16019643Y-9318929D01*
X16033928Y-9290357D01*
X16033928Y-9276072D01*
X16019643Y-9247500D01*
X15991071Y-9233214D01*
X15948214Y-9233214D01*
X15919643Y-9218929D01*
X15905357Y-9190357D01*
X15905357Y-9176072D01*
X15919643Y-9147500D01*
X15948214Y-9133214D01*
X15991071Y-9133214D01*
X16019643Y-9147500D01*
X16133928Y-9447500D02*
X16148214Y-9433214D01*
X16176786Y-9390357D01*
X16191071Y-9361786D01*
X16205357Y-9318929D01*
X16219643Y-9247500D01*
X16219643Y-9190357D01*
X16205357Y-9118929D01*
X16191071Y-9076072D01*
X16176786Y-9047500D01*
X16148214Y-9004643D01*
X16133928Y-8990357D01*
X9647500Y-9593500D02*
G75*
G03X9647500Y-9593500I-40000J0D01*
G01*
X9991071Y-9429214D02*
X10019643Y-9429214D01*
X10048214Y-9443500D01*
X10062500Y-9457786D01*
X10076786Y-9486357D01*
X10091071Y-9543500D01*
X10091071Y-9614929D01*
X10076786Y-9672072D01*
X10062500Y-9700643D01*
X10048214Y-9714929D01*
X10019643Y-9729214D01*
X9991071Y-9729214D01*
X9962500Y-9714929D01*
X9948214Y-9700643D01*
X9933928Y-9672072D01*
X9919643Y-9614929D01*
X9919643Y-9543500D01*
X9933928Y-9486357D01*
X9948214Y-9457786D01*
X9962500Y-9443500D01*
X9991071Y-9429214D01*
X10219643Y-9700643D02*
X10233928Y-9714929D01*
X10219643Y-9729214D01*
X10205357Y-9714929D01*
X10219643Y-9700643D01*
X10219643Y-9729214D01*
X10405357Y-9557786D02*
X10376786Y-9543500D01*
X10362500Y-9529214D01*
X10348214Y-9500643D01*
X10348214Y-9486357D01*
X10362500Y-9457786D01*
X10376786Y-9443500D01*
X10405357Y-9429214D01*
X10462500Y-9429214D01*
X10491071Y-9443500D01*
X10505357Y-9457786D01*
X10519643Y-9486357D01*
X10519643Y-9500643D01*
X10505357Y-9529214D01*
X10491071Y-9543500D01*
X10462500Y-9557786D01*
X10405357Y-9557786D01*
X10376786Y-9572072D01*
X10362500Y-9586357D01*
X10348214Y-9614929D01*
X10348214Y-9672072D01*
X10362500Y-9700643D01*
X10376786Y-9714929D01*
X10405357Y-9729214D01*
X10462500Y-9729214D01*
X10491071Y-9714929D01*
X10505357Y-9700643D01*
X10519643Y-9672072D01*
X10519643Y-9614929D01*
X10505357Y-9586357D01*
X10491071Y-9572072D01*
X10462500Y-9557786D01*
X10705357Y-9429214D02*
X10733928Y-9429214D01*
X10762500Y-9443500D01*
X10776786Y-9457786D01*
X10791071Y-9486357D01*
X10805357Y-9543500D01*
X10805357Y-9614929D01*
X10791071Y-9672072D01*
X10776786Y-9700643D01*
X10762500Y-9714929D01*
X10733928Y-9729214D01*
X10705357Y-9729214D01*
X10676786Y-9714929D01*
X10662500Y-9700643D01*
X10648214Y-9672072D01*
X10633928Y-9614929D01*
X10633928Y-9543500D01*
X10648214Y-9486357D01*
X10662500Y-9457786D01*
X10676786Y-9443500D01*
X10705357Y-9429214D01*
X10933928Y-9729214D02*
X10933928Y-9529214D01*
X10933928Y-9557786D02*
X10948214Y-9543500D01*
X10976786Y-9529214D01*
X11019643Y-9529214D01*
X11048214Y-9543500D01*
X11062500Y-9572072D01*
X11062500Y-9729214D01*
X11062500Y-9572072D02*
X11076786Y-9543500D01*
X11105357Y-9529214D01*
X11148214Y-9529214D01*
X11176786Y-9543500D01*
X11191071Y-9572072D01*
X11191071Y-9729214D01*
X11333928Y-9729214D02*
X11333928Y-9529214D01*
X11333928Y-9557786D02*
X11348214Y-9543500D01*
X11376786Y-9529214D01*
X11419643Y-9529214D01*
X11448214Y-9543500D01*
X11462500Y-9572072D01*
X11462500Y-9729214D01*
X11462500Y-9572072D02*
X11476786Y-9543500D01*
X11505357Y-9529214D01*
X11548214Y-9529214D01*
X11576786Y-9543500D01*
X11591071Y-9572072D01*
X11591071Y-9729214D01*
X12176786Y-9414929D02*
X11919643Y-9800643D01*
X12562500Y-9429214D02*
X12591071Y-9429214D01*
X12619643Y-9443500D01*
X12633928Y-9457786D01*
X12648214Y-9486357D01*
X12662500Y-9543500D01*
X12662500Y-9614929D01*
X12648214Y-9672072D01*
X12633928Y-9700643D01*
X12619643Y-9714929D01*
X12591071Y-9729214D01*
X12562500Y-9729214D01*
X12533928Y-9714929D01*
X12519643Y-9700643D01*
X12505357Y-9672072D01*
X12491071Y-9614929D01*
X12491071Y-9543500D01*
X12505357Y-9486357D01*
X12519643Y-9457786D01*
X12533928Y-9443500D01*
X12562500Y-9429214D01*
X12791071Y-9700643D02*
X12805357Y-9714929D01*
X12791071Y-9729214D01*
X12776786Y-9714929D01*
X12791071Y-9700643D01*
X12791071Y-9729214D01*
X12991071Y-9429214D02*
X13019643Y-9429214D01*
X13048214Y-9443500D01*
X13062500Y-9457786D01*
X13076786Y-9486357D01*
X13091071Y-9543500D01*
X13091071Y-9614929D01*
X13076786Y-9672072D01*
X13062500Y-9700643D01*
X13048214Y-9714929D01*
X13019643Y-9729214D01*
X12991071Y-9729214D01*
X12962500Y-9714929D01*
X12948214Y-9700643D01*
X12933928Y-9672072D01*
X12919643Y-9614929D01*
X12919643Y-9543500D01*
X12933928Y-9486357D01*
X12948214Y-9457786D01*
X12962500Y-9443500D01*
X12991071Y-9429214D01*
X13191071Y-9429214D02*
X13376786Y-9429214D01*
X13276786Y-9543500D01*
X13319643Y-9543500D01*
X13348214Y-9557786D01*
X13362500Y-9572072D01*
X13376786Y-9600643D01*
X13376786Y-9672072D01*
X13362500Y-9700643D01*
X13348214Y-9714929D01*
X13319643Y-9729214D01*
X13233928Y-9729214D01*
X13205357Y-9714929D01*
X13191071Y-9700643D01*
X13662500Y-9729214D02*
X13491071Y-9729214D01*
X13576786Y-9729214D02*
X13576786Y-9429214D01*
X13548214Y-9472072D01*
X13519643Y-9500643D01*
X13491071Y-9514929D01*
X13776786Y-9429214D02*
X13776786Y-9486357D01*
X13891071Y-9429214D02*
X13891071Y-9486357D01*
X14333928Y-9843500D02*
X14319643Y-9829214D01*
X14291071Y-9786357D01*
X14276786Y-9757786D01*
X14262500Y-9714929D01*
X14248214Y-9643500D01*
X14248214Y-9586357D01*
X14262500Y-9514929D01*
X14276786Y-9472072D01*
X14291071Y-9443500D01*
X14319643Y-9400643D01*
X14333928Y-9386357D01*
X14591071Y-9429214D02*
X14448214Y-9429214D01*
X14433928Y-9572072D01*
X14448214Y-9557786D01*
X14476786Y-9543500D01*
X14548214Y-9543500D01*
X14576786Y-9557786D01*
X14591071Y-9572072D01*
X14605357Y-9600643D01*
X14605357Y-9672072D01*
X14591071Y-9700643D01*
X14576786Y-9714929D01*
X14548214Y-9729214D01*
X14476786Y-9729214D01*
X14448214Y-9714929D01*
X14433928Y-9700643D01*
X14791071Y-9429214D02*
X14819643Y-9429214D01*
X14848214Y-9443500D01*
X14862500Y-9457786D01*
X14876786Y-9486357D01*
X14891071Y-9543500D01*
X14891071Y-9614929D01*
X14876786Y-9672072D01*
X14862500Y-9700643D01*
X14848214Y-9714929D01*
X14819643Y-9729214D01*
X14791071Y-9729214D01*
X14762500Y-9714929D01*
X14748214Y-9700643D01*
X14733928Y-9672072D01*
X14719643Y-9614929D01*
X14719643Y-9543500D01*
X14733928Y-9486357D01*
X14748214Y-9457786D01*
X14762500Y-9443500D01*
X14791071Y-9429214D01*
X15248214Y-9729214D02*
X15248214Y-9429214D01*
X15376786Y-9729214D02*
X15376786Y-9572072D01*
X15362500Y-9543500D01*
X15333928Y-9529214D01*
X15291071Y-9529214D01*
X15262500Y-9543500D01*
X15248214Y-9557786D01*
X15562500Y-9729214D02*
X15533928Y-9714929D01*
X15519643Y-9700643D01*
X15505357Y-9672072D01*
X15505357Y-9586357D01*
X15519643Y-9557786D01*
X15533928Y-9543500D01*
X15562500Y-9529214D01*
X15605357Y-9529214D01*
X15633928Y-9543500D01*
X15648214Y-9557786D01*
X15662500Y-9586357D01*
X15662500Y-9672072D01*
X15648214Y-9700643D01*
X15633928Y-9714929D01*
X15605357Y-9729214D01*
X15562500Y-9729214D01*
X15833928Y-9729214D02*
X15805357Y-9714929D01*
X15791071Y-9686357D01*
X15791071Y-9429214D01*
X16062500Y-9714929D02*
X16033928Y-9729214D01*
X15976786Y-9729214D01*
X15948214Y-9714929D01*
X15933928Y-9686357D01*
X15933928Y-9572072D01*
X15948214Y-9543500D01*
X15976786Y-9529214D01*
X16033928Y-9529214D01*
X16062500Y-9543500D01*
X16076786Y-9572072D01*
X16076786Y-9600643D01*
X15933928Y-9629214D01*
X16191071Y-9714929D02*
X16219643Y-9729214D01*
X16276786Y-9729214D01*
X16305357Y-9714929D01*
X16319643Y-9686357D01*
X16319643Y-9672072D01*
X16305357Y-9643500D01*
X16276786Y-9629214D01*
X16233928Y-9629214D01*
X16205357Y-9614929D01*
X16191071Y-9586357D01*
X16191071Y-9572072D01*
X16205357Y-9543500D01*
X16233928Y-9529214D01*
X16276786Y-9529214D01*
X16305357Y-9543500D01*
X16419643Y-9843500D02*
X16433928Y-9829214D01*
X16462500Y-9786357D01*
X16476786Y-9757786D01*
X16491071Y-9714929D01*
X16505357Y-9643500D01*
X16505357Y-9586357D01*
X16491071Y-9514929D01*
X16476786Y-9472072D01*
X16462500Y-9443500D01*
X16433928Y-9400643D01*
X16419643Y-9386357D01*
X9597500Y-9939500D02*
X9597500Y-10039500D01*
X9547500Y-9989500D02*
X9647500Y-9989500D01*
X10091071Y-10125214D02*
X9919643Y-10125214D01*
X10005357Y-10125214D02*
X10005357Y-9825214D01*
X9976786Y-9868072D01*
X9948214Y-9896643D01*
X9919643Y-9910929D01*
X10219643Y-10096643D02*
X10233928Y-10110929D01*
X10219643Y-10125214D01*
X10205357Y-10110929D01*
X10219643Y-10096643D01*
X10219643Y-10125214D01*
X10419643Y-9825214D02*
X10448214Y-9825214D01*
X10476786Y-9839500D01*
X10491071Y-9853786D01*
X10505357Y-9882357D01*
X10519643Y-9939500D01*
X10519643Y-10010929D01*
X10505357Y-10068072D01*
X10491071Y-10096643D01*
X10476786Y-10110929D01*
X10448214Y-10125214D01*
X10419643Y-10125214D01*
X10391071Y-10110929D01*
X10376786Y-10096643D01*
X10362500Y-10068072D01*
X10348214Y-10010929D01*
X10348214Y-9939500D01*
X10362500Y-9882357D01*
X10376786Y-9853786D01*
X10391071Y-9839500D01*
X10419643Y-9825214D01*
X10705357Y-9825214D02*
X10733928Y-9825214D01*
X10762500Y-9839500D01*
X10776786Y-9853786D01*
X10791071Y-9882357D01*
X10805357Y-9939500D01*
X10805357Y-10010929D01*
X10791071Y-10068072D01*
X10776786Y-10096643D01*
X10762500Y-10110929D01*
X10733928Y-10125214D01*
X10705357Y-10125214D01*
X10676786Y-10110929D01*
X10662500Y-10096643D01*
X10648214Y-10068072D01*
X10633928Y-10010929D01*
X10633928Y-9939500D01*
X10648214Y-9882357D01*
X10662500Y-9853786D01*
X10676786Y-9839500D01*
X10705357Y-9825214D01*
X10933928Y-10125214D02*
X10933928Y-9925214D01*
X10933928Y-9953786D02*
X10948214Y-9939500D01*
X10976786Y-9925214D01*
X11019643Y-9925214D01*
X11048214Y-9939500D01*
X11062500Y-9968072D01*
X11062500Y-10125214D01*
X11062500Y-9968072D02*
X11076786Y-9939500D01*
X11105357Y-9925214D01*
X11148214Y-9925214D01*
X11176786Y-9939500D01*
X11191071Y-9968072D01*
X11191071Y-10125214D01*
X11333928Y-10125214D02*
X11333928Y-9925214D01*
X11333928Y-9953786D02*
X11348214Y-9939500D01*
X11376786Y-9925214D01*
X11419643Y-9925214D01*
X11448214Y-9939500D01*
X11462500Y-9968072D01*
X11462500Y-10125214D01*
X11462500Y-9968072D02*
X11476786Y-9939500D01*
X11505357Y-9925214D01*
X11548214Y-9925214D01*
X11576786Y-9939500D01*
X11591071Y-9968072D01*
X11591071Y-10125214D01*
X12176786Y-9810929D02*
X11919643Y-10196643D01*
X12562500Y-9825214D02*
X12591071Y-9825214D01*
X12619643Y-9839500D01*
X12633928Y-9853786D01*
X12648214Y-9882357D01*
X12662500Y-9939500D01*
X12662500Y-10010929D01*
X12648214Y-10068072D01*
X12633928Y-10096643D01*
X12619643Y-10110929D01*
X12591071Y-10125214D01*
X12562500Y-10125214D01*
X12533928Y-10110929D01*
X12519643Y-10096643D01*
X12505357Y-10068072D01*
X12491071Y-10010929D01*
X12491071Y-9939500D01*
X12505357Y-9882357D01*
X12519643Y-9853786D01*
X12533928Y-9839500D01*
X12562500Y-9825214D01*
X12791071Y-10096643D02*
X12805357Y-10110929D01*
X12791071Y-10125214D01*
X12776786Y-10110929D01*
X12791071Y-10096643D01*
X12791071Y-10125214D01*
X12991071Y-9825214D02*
X13019643Y-9825214D01*
X13048214Y-9839500D01*
X13062500Y-9853786D01*
X13076786Y-9882357D01*
X13091071Y-9939500D01*
X13091071Y-10010929D01*
X13076786Y-10068072D01*
X13062500Y-10096643D01*
X13048214Y-10110929D01*
X13019643Y-10125214D01*
X12991071Y-10125214D01*
X12962500Y-10110929D01*
X12948214Y-10096643D01*
X12933928Y-10068072D01*
X12919643Y-10010929D01*
X12919643Y-9939500D01*
X12933928Y-9882357D01*
X12948214Y-9853786D01*
X12962500Y-9839500D01*
X12991071Y-9825214D01*
X13191071Y-9825214D02*
X13376786Y-9825214D01*
X13276786Y-9939500D01*
X13319643Y-9939500D01*
X13348214Y-9953786D01*
X13362500Y-9968072D01*
X13376786Y-9996643D01*
X13376786Y-10068072D01*
X13362500Y-10096643D01*
X13348214Y-10110929D01*
X13319643Y-10125214D01*
X13233928Y-10125214D01*
X13205357Y-10110929D01*
X13191071Y-10096643D01*
X13519643Y-10125214D02*
X13576786Y-10125214D01*
X13605357Y-10110929D01*
X13619643Y-10096643D01*
X13648214Y-10053786D01*
X13662500Y-9996643D01*
X13662500Y-9882357D01*
X13648214Y-9853786D01*
X13633928Y-9839500D01*
X13605357Y-9825214D01*
X13548214Y-9825214D01*
X13519643Y-9839500D01*
X13505357Y-9853786D01*
X13491071Y-9882357D01*
X13491071Y-9953786D01*
X13505357Y-9982357D01*
X13519643Y-9996643D01*
X13548214Y-10010929D01*
X13605357Y-10010929D01*
X13633928Y-9996643D01*
X13648214Y-9982357D01*
X13662500Y-9953786D01*
X13776786Y-9825214D02*
X13776786Y-9882357D01*
X13891071Y-9825214D02*
X13891071Y-9882357D01*
X14333928Y-10239500D02*
X14319643Y-10225214D01*
X14291071Y-10182357D01*
X14276786Y-10153786D01*
X14262500Y-10110929D01*
X14248214Y-10039500D01*
X14248214Y-9982357D01*
X14262500Y-9910929D01*
X14276786Y-9868072D01*
X14291071Y-9839500D01*
X14319643Y-9796643D01*
X14333928Y-9782357D01*
X14605357Y-10125214D02*
X14433928Y-10125214D01*
X14519643Y-10125214D02*
X14519643Y-9825214D01*
X14491071Y-9868072D01*
X14462500Y-9896643D01*
X14433928Y-9910929D01*
X14862500Y-9825214D02*
X14805357Y-9825214D01*
X14776786Y-9839500D01*
X14762500Y-9853786D01*
X14733928Y-9896643D01*
X14719643Y-9953786D01*
X14719643Y-10068072D01*
X14733928Y-10096643D01*
X14748214Y-10110929D01*
X14776786Y-10125214D01*
X14833928Y-10125214D01*
X14862500Y-10110929D01*
X14876786Y-10096643D01*
X14891071Y-10068072D01*
X14891071Y-9996643D01*
X14876786Y-9968072D01*
X14862500Y-9953786D01*
X14833928Y-9939500D01*
X14776786Y-9939500D01*
X14748214Y-9953786D01*
X14733928Y-9968072D01*
X14719643Y-9996643D01*
X15248214Y-10125214D02*
X15248214Y-9825214D01*
X15376786Y-10125214D02*
X15376786Y-9968072D01*
X15362500Y-9939500D01*
X15333928Y-9925214D01*
X15291071Y-9925214D01*
X15262500Y-9939500D01*
X15248214Y-9953786D01*
X15562500Y-10125214D02*
X15533928Y-10110929D01*
X15519643Y-10096643D01*
X15505357Y-10068072D01*
X15505357Y-9982357D01*
X15519643Y-9953786D01*
X15533928Y-9939500D01*
X15562500Y-9925214D01*
X15605357Y-9925214D01*
X15633928Y-9939500D01*
X15648214Y-9953786D01*
X15662500Y-9982357D01*
X15662500Y-10068072D01*
X15648214Y-10096643D01*
X15633928Y-10110929D01*
X15605357Y-10125214D01*
X15562500Y-10125214D01*
X15833928Y-10125214D02*
X15805357Y-10110929D01*
X15791071Y-10082357D01*
X15791071Y-9825214D01*
X16062500Y-10110929D02*
X16033928Y-10125214D01*
X15976786Y-10125214D01*
X15948214Y-10110929D01*
X15933928Y-10082357D01*
X15933928Y-9968072D01*
X15948214Y-9939500D01*
X15976786Y-9925214D01*
X16033928Y-9925214D01*
X16062500Y-9939500D01*
X16076786Y-9968072D01*
X16076786Y-9996643D01*
X15933928Y-10025214D01*
X16191071Y-10110929D02*
X16219643Y-10125214D01*
X16276786Y-10125214D01*
X16305357Y-10110929D01*
X16319643Y-10082357D01*
X16319643Y-10068072D01*
X16305357Y-10039500D01*
X16276786Y-10025214D01*
X16233928Y-10025214D01*
X16205357Y-10010929D01*
X16191071Y-9982357D01*
X16191071Y-9968072D01*
X16205357Y-9939500D01*
X16233928Y-9925214D01*
X16276786Y-9925214D01*
X16305357Y-9939500D01*
X16419643Y-10239500D02*
X16433928Y-10225214D01*
X16462500Y-10182357D01*
X16476786Y-10153786D01*
X16491071Y-10110929D01*
X16505357Y-10039500D01*
X16505357Y-9982357D01*
X16491071Y-9910929D01*
X16476786Y-9868072D01*
X16462500Y-9839500D01*
X16433928Y-9796643D01*
X16419643Y-9782357D01*
X9600638Y-10498638D02*
X9600638Y-10272362D01*
X9374362Y-10272362D01*
X9374362Y-10498638D01*
X9600638Y-10498638D01*
X9905357Y-10221214D02*
X10091071Y-10221214D01*
X9991071Y-10335500D01*
X10033928Y-10335500D01*
X10062500Y-10349786D01*
X10076786Y-10364072D01*
X10091071Y-10392643D01*
X10091071Y-10464072D01*
X10076786Y-10492643D01*
X10062500Y-10506929D01*
X10033928Y-10521214D01*
X9948214Y-10521214D01*
X9919643Y-10506929D01*
X9905357Y-10492643D01*
X10219643Y-10492643D02*
X10233928Y-10506929D01*
X10219643Y-10521214D01*
X10205357Y-10506929D01*
X10219643Y-10492643D01*
X10219643Y-10521214D01*
X10348214Y-10249786D02*
X10362500Y-10235500D01*
X10391071Y-10221214D01*
X10462500Y-10221214D01*
X10491071Y-10235500D01*
X10505357Y-10249786D01*
X10519643Y-10278357D01*
X10519643Y-10306929D01*
X10505357Y-10349786D01*
X10333928Y-10521214D01*
X10519643Y-10521214D01*
X10705357Y-10221214D02*
X10733928Y-10221214D01*
X10762500Y-10235500D01*
X10776786Y-10249786D01*
X10791071Y-10278357D01*
X10805357Y-10335500D01*
X10805357Y-10406929D01*
X10791071Y-10464072D01*
X10776786Y-10492643D01*
X10762500Y-10506929D01*
X10733928Y-10521214D01*
X10705357Y-10521214D01*
X10676786Y-10506929D01*
X10662500Y-10492643D01*
X10648214Y-10464072D01*
X10633928Y-10406929D01*
X10633928Y-10335500D01*
X10648214Y-10278357D01*
X10662500Y-10249786D01*
X10676786Y-10235500D01*
X10705357Y-10221214D01*
X10933928Y-10521214D02*
X10933928Y-10321214D01*
X10933928Y-10349786D02*
X10948214Y-10335500D01*
X10976786Y-10321214D01*
X11019643Y-10321214D01*
X11048214Y-10335500D01*
X11062500Y-10364072D01*
X11062500Y-10521214D01*
X11062500Y-10364072D02*
X11076786Y-10335500D01*
X11105357Y-10321214D01*
X11148214Y-10321214D01*
X11176786Y-10335500D01*
X11191071Y-10364072D01*
X11191071Y-10521214D01*
X11333928Y-10521214D02*
X11333928Y-10321214D01*
X11333928Y-10349786D02*
X11348214Y-10335500D01*
X11376786Y-10321214D01*
X11419643Y-10321214D01*
X11448214Y-10335500D01*
X11462500Y-10364072D01*
X11462500Y-10521214D01*
X11462500Y-10364072D02*
X11476786Y-10335500D01*
X11505357Y-10321214D01*
X11548214Y-10321214D01*
X11576786Y-10335500D01*
X11591071Y-10364072D01*
X11591071Y-10521214D01*
X12176786Y-10206929D02*
X11919643Y-10592643D01*
X12562500Y-10221214D02*
X12591071Y-10221214D01*
X12619643Y-10235500D01*
X12633928Y-10249786D01*
X12648214Y-10278357D01*
X12662500Y-10335500D01*
X12662500Y-10406929D01*
X12648214Y-10464072D01*
X12633928Y-10492643D01*
X12619643Y-10506929D01*
X12591071Y-10521214D01*
X12562500Y-10521214D01*
X12533928Y-10506929D01*
X12519643Y-10492643D01*
X12505357Y-10464072D01*
X12491071Y-10406929D01*
X12491071Y-10335500D01*
X12505357Y-10278357D01*
X12519643Y-10249786D01*
X12533928Y-10235500D01*
X12562500Y-10221214D01*
X12791071Y-10492643D02*
X12805357Y-10506929D01*
X12791071Y-10521214D01*
X12776786Y-10506929D01*
X12791071Y-10492643D01*
X12791071Y-10521214D01*
X13091071Y-10521214D02*
X12919643Y-10521214D01*
X13005357Y-10521214D02*
X13005357Y-10221214D01*
X12976786Y-10264072D01*
X12948214Y-10292643D01*
X12919643Y-10306929D01*
X13205357Y-10249786D02*
X13219643Y-10235500D01*
X13248214Y-10221214D01*
X13319643Y-10221214D01*
X13348214Y-10235500D01*
X13362500Y-10249786D01*
X13376786Y-10278357D01*
X13376786Y-10306929D01*
X13362500Y-10349786D01*
X13191071Y-10521214D01*
X13376786Y-10521214D01*
X13633928Y-10221214D02*
X13576786Y-10221214D01*
X13548214Y-10235500D01*
X13533928Y-10249786D01*
X13505357Y-10292643D01*
X13491071Y-10349786D01*
X13491071Y-10464072D01*
X13505357Y-10492643D01*
X13519643Y-10506929D01*
X13548214Y-10521214D01*
X13605357Y-10521214D01*
X13633928Y-10506929D01*
X13648214Y-10492643D01*
X13662500Y-10464072D01*
X13662500Y-10392643D01*
X13648214Y-10364072D01*
X13633928Y-10349786D01*
X13605357Y-10335500D01*
X13548214Y-10335500D01*
X13519643Y-10349786D01*
X13505357Y-10364072D01*
X13491071Y-10392643D01*
X13776786Y-10221214D02*
X13776786Y-10278357D01*
X13891071Y-10221214D02*
X13891071Y-10278357D01*
X14333928Y-10635500D02*
X14319643Y-10621214D01*
X14291071Y-10578357D01*
X14276786Y-10549786D01*
X14262500Y-10506929D01*
X14248214Y-10435500D01*
X14248214Y-10378357D01*
X14262500Y-10306929D01*
X14276786Y-10264072D01*
X14291071Y-10235500D01*
X14319643Y-10192643D01*
X14333928Y-10178357D01*
X14419643Y-10221214D02*
X14605357Y-10221214D01*
X14505357Y-10335500D01*
X14548214Y-10335500D01*
X14576786Y-10349786D01*
X14591071Y-10364072D01*
X14605357Y-10392643D01*
X14605357Y-10464072D01*
X14591071Y-10492643D01*
X14576786Y-10506929D01*
X14548214Y-10521214D01*
X14462500Y-10521214D01*
X14433928Y-10506929D01*
X14419643Y-10492643D01*
X14962500Y-10521214D02*
X14962500Y-10221214D01*
X15091071Y-10521214D02*
X15091071Y-10364072D01*
X15076786Y-10335500D01*
X15048214Y-10321214D01*
X15005357Y-10321214D01*
X14976786Y-10335500D01*
X14962500Y-10349786D01*
X15276786Y-10521214D02*
X15248214Y-10506929D01*
X15233928Y-10492643D01*
X15219643Y-10464072D01*
X15219643Y-10378357D01*
X15233928Y-10349786D01*
X15248214Y-10335500D01*
X15276786Y-10321214D01*
X15319643Y-10321214D01*
X15348214Y-10335500D01*
X15362500Y-10349786D01*
X15376786Y-10378357D01*
X15376786Y-10464072D01*
X15362500Y-10492643D01*
X15348214Y-10506929D01*
X15319643Y-10521214D01*
X15276786Y-10521214D01*
X15548214Y-10521214D02*
X15519643Y-10506929D01*
X15505357Y-10478357D01*
X15505357Y-10221214D01*
X15776786Y-10506929D02*
X15748214Y-10521214D01*
X15691071Y-10521214D01*
X15662500Y-10506929D01*
X15648214Y-10478357D01*
X15648214Y-10364072D01*
X15662500Y-10335500D01*
X15691071Y-10321214D01*
X15748214Y-10321214D01*
X15776786Y-10335500D01*
X15791071Y-10364072D01*
X15791071Y-10392643D01*
X15648214Y-10421214D01*
X15905357Y-10506929D02*
X15933928Y-10521214D01*
X15991071Y-10521214D01*
X16019643Y-10506929D01*
X16033928Y-10478357D01*
X16033928Y-10464072D01*
X16019643Y-10435500D01*
X15991071Y-10421214D01*
X15948214Y-10421214D01*
X15919643Y-10406929D01*
X15905357Y-10378357D01*
X15905357Y-10364072D01*
X15919643Y-10335500D01*
X15948214Y-10321214D01*
X15991071Y-10321214D01*
X16019643Y-10335500D01*
X16133928Y-10635500D02*
X16148214Y-10621214D01*
X16176786Y-10578357D01*
X16191071Y-10549786D01*
X16205357Y-10506929D01*
X16219643Y-10435500D01*
X16219643Y-10378357D01*
X16205357Y-10306929D01*
X16191071Y-10264072D01*
X16176786Y-10235500D01*
X16148214Y-10192643D01*
X16133928Y-10178357D01*
X16676786Y-10635500D02*
X16662500Y-10621214D01*
X16633928Y-10578357D01*
X16619643Y-10549786D01*
X16605357Y-10506929D01*
X16591071Y-10435500D01*
X16591071Y-10378357D01*
X16605357Y-10306929D01*
X16619643Y-10264072D01*
X16633928Y-10235500D01*
X16662500Y-10192643D01*
X16676786Y-10178357D01*
X16791071Y-10321214D02*
X16791071Y-10521214D01*
X16791071Y-10349786D02*
X16805357Y-10335500D01*
X16833928Y-10321214D01*
X16876786Y-10321214D01*
X16905357Y-10335500D01*
X16919643Y-10364072D01*
X16919643Y-10521214D01*
X17105357Y-10521214D02*
X17076786Y-10506929D01*
X17062500Y-10492643D01*
X17048214Y-10464072D01*
X17048214Y-10378357D01*
X17062500Y-10349786D01*
X17076786Y-10335500D01*
X17105357Y-10321214D01*
X17148214Y-10321214D01*
X17176786Y-10335500D01*
X17191071Y-10349786D01*
X17205357Y-10378357D01*
X17205357Y-10464072D01*
X17191071Y-10492643D01*
X17176786Y-10506929D01*
X17148214Y-10521214D01*
X17105357Y-10521214D01*
X17291071Y-10321214D02*
X17405357Y-10321214D01*
X17333928Y-10221214D02*
X17333928Y-10478357D01*
X17348214Y-10506929D01*
X17376786Y-10521214D01*
X17405357Y-10521214D01*
X17733928Y-10321214D02*
X17733928Y-10621214D01*
X17733928Y-10335500D02*
X17762500Y-10321214D01*
X17819643Y-10321214D01*
X17848214Y-10335500D01*
X17862500Y-10349786D01*
X17876786Y-10378357D01*
X17876786Y-10464072D01*
X17862500Y-10492643D01*
X17848214Y-10506929D01*
X17819643Y-10521214D01*
X17762500Y-10521214D01*
X17733928Y-10506929D01*
X18048214Y-10521214D02*
X18019643Y-10506929D01*
X18005357Y-10478357D01*
X18005357Y-10221214D01*
X18291071Y-10521214D02*
X18291071Y-10364072D01*
X18276786Y-10335500D01*
X18248214Y-10321214D01*
X18191071Y-10321214D01*
X18162500Y-10335500D01*
X18291071Y-10506929D02*
X18262500Y-10521214D01*
X18191071Y-10521214D01*
X18162500Y-10506929D01*
X18148214Y-10478357D01*
X18148214Y-10449786D01*
X18162500Y-10421214D01*
X18191071Y-10406929D01*
X18262500Y-10406929D01*
X18291071Y-10392643D01*
X18391071Y-10321214D02*
X18505357Y-10321214D01*
X18433928Y-10221214D02*
X18433928Y-10478357D01*
X18448214Y-10506929D01*
X18476786Y-10521214D01*
X18505357Y-10521214D01*
X18719643Y-10506929D02*
X18691071Y-10521214D01*
X18633928Y-10521214D01*
X18605357Y-10506929D01*
X18591071Y-10478357D01*
X18591071Y-10364072D01*
X18605357Y-10335500D01*
X18633928Y-10321214D01*
X18691071Y-10321214D01*
X18719643Y-10335500D01*
X18733928Y-10364072D01*
X18733928Y-10392643D01*
X18591071Y-10421214D01*
X18991071Y-10521214D02*
X18991071Y-10221214D01*
X18991071Y-10506929D02*
X18962500Y-10521214D01*
X18905357Y-10521214D01*
X18876786Y-10506929D01*
X18862500Y-10492643D01*
X18848214Y-10464072D01*
X18848214Y-10378357D01*
X18862500Y-10349786D01*
X18876786Y-10335500D01*
X18905357Y-10321214D01*
X18962500Y-10321214D01*
X18991071Y-10335500D01*
X19105357Y-10635500D02*
X19119643Y-10621214D01*
X19148214Y-10578357D01*
X19162500Y-10549786D01*
X19176786Y-10506929D01*
X19191071Y-10435500D01*
X19191071Y-10378357D01*
X19176786Y-10306929D01*
X19162500Y-10264072D01*
X19148214Y-10235500D01*
X19119643Y-10192643D01*
X19105357Y-10178357D01*
M02*
