M48
; DRILL file {KiCad (5.1.5)-3} date 5/24/2020 1:05:50 PM
; FORMAT={3:3/ absolute / metric / suppress trailing zeros}
; #@! TF.CreationDate,2020-05-24T13:05:50-07:00
; #@! TF.GenerationSoftware,Kicad,Pcbnew,(5.1.5)-3
FMAT,2
METRIC,LZ
T1C0.400
T2C0.800
T3C1.000
T4C3.200
%
G90
G05
T1
X11065Y-05655
X1116Y-07425
X11265Y-0558
X11345Y-06805
T2
X1184Y-05935
X1184Y-06185
X1029Y-07225
X1054Y-07225
X1054Y-06485
X1054Y-06735
X1184Y-05445
X1209Y-05445
X1054Y-05925
X1054Y-06175
X12615Y-0545
X12865Y-0545
X13465Y-04945
X13465Y-05295
X12145Y-05765
X12145Y-06019
X12145Y-06273
X12145Y-06527
X12145Y-06781
X12145Y-07035
X12145Y-07289
X12145Y-07543
X12907Y-05765
X12907Y-06019
X12907Y-06273
X12907Y-06527
X12907Y-06781
X12907Y-07035
X12907Y-07289
X12907Y-07543
X1184Y-06495
X1184Y-06745
X1081Y-05445
X1081Y-05699
X1081Y-05953
X1081Y-06207
X1081Y-06461
X1081Y-06715
X1081Y-06969
X1081Y-07223
X11572Y-05445
X11572Y-05699
X11572Y-05953
X11572Y-06207
X11572Y-06461
X11572Y-06715
X11572Y-06969
X11572Y-07223
X13465Y-0758
X13465Y-0793
T3
X1081Y-04955
X11064Y-04955
X11318Y-04955
X11572Y-04955
X1426Y-04961
X1426Y-05215
X1327Y-06093
X1327Y-06347
X1327Y-06601
X1327Y-06855
X10845Y-07645
X11099Y-07645
X11353Y-07645
X11607Y-07645
X1426Y-07646
X1426Y-079
T4
X10015Y-05035
X10015Y-07875
X14095Y-06485
T0
M30
