G04 #@! TF.GenerationSoftware,KiCad,Pcbnew,(5.1.5)-3*
G04 #@! TF.CreationDate,2020-05-24T13:05:40-07:00*
G04 #@! TF.ProjectId,DAgostinoZach_L6,4441676f-7374-4696-9e6f-5a6163685f4c,rev?*
G04 #@! TF.SameCoordinates,Original*
G04 #@! TF.FileFunction,Soldermask,Bot*
G04 #@! TF.FilePolarity,Negative*
%FSLAX46Y46*%
G04 Gerber Fmt 4.6, Leading zero omitted, Abs format (unit mm)*
G04 Created by KiCad (PCBNEW (5.1.5)-3) date 2020-05-24 13:05:40*
%MOMM*%
%LPD*%
G04 APERTURE LIST*
%ADD10C,0.100000*%
G04 APERTURE END LIST*
D10*
G36*
X100525256Y-77141298D02*
G01*
X100631579Y-77162447D01*
X100932042Y-77286903D01*
X101202451Y-77467585D01*
X101432415Y-77697549D01*
X101613097Y-77967958D01*
X101737553Y-78268421D01*
X101801000Y-78587391D01*
X101801000Y-78912609D01*
X101737553Y-79231579D01*
X101613097Y-79532042D01*
X101432415Y-79802451D01*
X101202451Y-80032415D01*
X100932042Y-80213097D01*
X100631579Y-80337553D01*
X100525256Y-80358702D01*
X100312611Y-80401000D01*
X99987389Y-80401000D01*
X99774744Y-80358702D01*
X99668421Y-80337553D01*
X99367958Y-80213097D01*
X99097549Y-80032415D01*
X98867585Y-79802451D01*
X98686903Y-79532042D01*
X98562447Y-79231579D01*
X98499000Y-78912609D01*
X98499000Y-78587391D01*
X98562447Y-78268421D01*
X98686903Y-77967958D01*
X98867585Y-77697549D01*
X99097549Y-77467585D01*
X99367958Y-77286903D01*
X99668421Y-77162447D01*
X99774744Y-77141298D01*
X99987389Y-77099000D01*
X100312611Y-77099000D01*
X100525256Y-77141298D01*
G37*
G36*
X135501000Y-80151000D02*
G01*
X133799000Y-80151000D01*
X133799000Y-78449000D01*
X135501000Y-78449000D01*
X135501000Y-80151000D01*
G37*
G36*
X143501000Y-79901000D02*
G01*
X141699000Y-79901000D01*
X141699000Y-78099000D01*
X143501000Y-78099000D01*
X143501000Y-79901000D01*
G37*
G36*
X142713512Y-75563927D02*
G01*
X142862812Y-75593624D01*
X143026784Y-75661544D01*
X143174354Y-75760147D01*
X143299853Y-75885646D01*
X143398456Y-76033216D01*
X143466376Y-76197188D01*
X143501000Y-76371259D01*
X143501000Y-76548741D01*
X143466376Y-76722812D01*
X143398456Y-76886784D01*
X143299853Y-77034354D01*
X143174354Y-77159853D01*
X143026784Y-77258456D01*
X142862812Y-77326376D01*
X142713512Y-77356073D01*
X142688742Y-77361000D01*
X142511258Y-77361000D01*
X142486488Y-77356073D01*
X142337188Y-77326376D01*
X142173216Y-77258456D01*
X142025646Y-77159853D01*
X141900147Y-77034354D01*
X141801544Y-76886784D01*
X141733624Y-76722812D01*
X141699000Y-76548741D01*
X141699000Y-76371259D01*
X141733624Y-76197188D01*
X141801544Y-76033216D01*
X141900147Y-75885646D01*
X142025646Y-75760147D01*
X142173216Y-75661544D01*
X142337188Y-75593624D01*
X142486488Y-75563927D01*
X142511258Y-75559000D01*
X142688742Y-75559000D01*
X142713512Y-75563927D01*
G37*
G36*
X113643512Y-75553927D02*
G01*
X113792812Y-75583624D01*
X113956784Y-75651544D01*
X114104354Y-75750147D01*
X114229853Y-75875646D01*
X114328456Y-76023216D01*
X114396376Y-76187188D01*
X114426073Y-76336488D01*
X114431000Y-76361258D01*
X114431000Y-76538742D01*
X114426073Y-76563512D01*
X114396376Y-76712812D01*
X114328456Y-76876784D01*
X114229853Y-77024354D01*
X114104354Y-77149853D01*
X113956784Y-77248456D01*
X113792812Y-77316376D01*
X113643512Y-77346073D01*
X113618742Y-77351000D01*
X113441258Y-77351000D01*
X113416488Y-77346073D01*
X113267188Y-77316376D01*
X113103216Y-77248456D01*
X112955646Y-77149853D01*
X112830147Y-77024354D01*
X112731544Y-76876784D01*
X112663624Y-76712812D01*
X112633927Y-76563512D01*
X112629000Y-76538742D01*
X112629000Y-76361258D01*
X112633927Y-76336488D01*
X112663624Y-76187188D01*
X112731544Y-76023216D01*
X112830147Y-75875646D01*
X112955646Y-75750147D01*
X113103216Y-75651544D01*
X113267188Y-75583624D01*
X113416488Y-75553927D01*
X113441258Y-75549000D01*
X113618742Y-75549000D01*
X113643512Y-75553927D01*
G37*
G36*
X116183512Y-75553927D02*
G01*
X116332812Y-75583624D01*
X116496784Y-75651544D01*
X116644354Y-75750147D01*
X116769853Y-75875646D01*
X116868456Y-76023216D01*
X116936376Y-76187188D01*
X116966073Y-76336488D01*
X116971000Y-76361258D01*
X116971000Y-76538742D01*
X116966073Y-76563512D01*
X116936376Y-76712812D01*
X116868456Y-76876784D01*
X116769853Y-77024354D01*
X116644354Y-77149853D01*
X116496784Y-77248456D01*
X116332812Y-77316376D01*
X116183512Y-77346073D01*
X116158742Y-77351000D01*
X115981258Y-77351000D01*
X115956488Y-77346073D01*
X115807188Y-77316376D01*
X115643216Y-77248456D01*
X115495646Y-77149853D01*
X115370147Y-77024354D01*
X115271544Y-76876784D01*
X115203624Y-76712812D01*
X115173927Y-76563512D01*
X115169000Y-76538742D01*
X115169000Y-76361258D01*
X115173927Y-76336488D01*
X115203624Y-76187188D01*
X115271544Y-76023216D01*
X115370147Y-75875646D01*
X115495646Y-75750147D01*
X115643216Y-75651544D01*
X115807188Y-75583624D01*
X115956488Y-75553927D01*
X115981258Y-75549000D01*
X116158742Y-75549000D01*
X116183512Y-75553927D01*
G37*
G36*
X111103512Y-75553927D02*
G01*
X111252812Y-75583624D01*
X111416784Y-75651544D01*
X111564354Y-75750147D01*
X111689853Y-75875646D01*
X111788456Y-76023216D01*
X111856376Y-76187188D01*
X111886073Y-76336488D01*
X111891000Y-76361258D01*
X111891000Y-76538742D01*
X111886073Y-76563512D01*
X111856376Y-76712812D01*
X111788456Y-76876784D01*
X111689853Y-77024354D01*
X111564354Y-77149853D01*
X111416784Y-77248456D01*
X111252812Y-77316376D01*
X111103512Y-77346073D01*
X111078742Y-77351000D01*
X110901258Y-77351000D01*
X110876488Y-77346073D01*
X110727188Y-77316376D01*
X110563216Y-77248456D01*
X110415646Y-77149853D01*
X110290147Y-77024354D01*
X110191544Y-76876784D01*
X110123624Y-76712812D01*
X110093927Y-76563512D01*
X110089000Y-76538742D01*
X110089000Y-76361258D01*
X110093927Y-76336488D01*
X110123624Y-76187188D01*
X110191544Y-76023216D01*
X110290147Y-75875646D01*
X110415646Y-75750147D01*
X110563216Y-75651544D01*
X110727188Y-75583624D01*
X110876488Y-75553927D01*
X110901258Y-75549000D01*
X111078742Y-75549000D01*
X111103512Y-75553927D01*
G37*
G36*
X109351000Y-77351000D02*
G01*
X107549000Y-77351000D01*
X107549000Y-75549000D01*
X109351000Y-75549000D01*
X109351000Y-77351000D01*
G37*
G36*
X134898228Y-74981703D02*
G01*
X135053100Y-75045853D01*
X135192481Y-75138985D01*
X135311015Y-75257519D01*
X135404147Y-75396900D01*
X135468297Y-75551772D01*
X135501000Y-75716184D01*
X135501000Y-75883816D01*
X135468297Y-76048228D01*
X135404147Y-76203100D01*
X135311015Y-76342481D01*
X135192481Y-76461015D01*
X135053100Y-76554147D01*
X134898228Y-76618297D01*
X134733816Y-76651000D01*
X134566184Y-76651000D01*
X134401772Y-76618297D01*
X134246900Y-76554147D01*
X134107519Y-76461015D01*
X133988985Y-76342481D01*
X133895853Y-76203100D01*
X133831703Y-76048228D01*
X133799000Y-75883816D01*
X133799000Y-75716184D01*
X133831703Y-75551772D01*
X133895853Y-75396900D01*
X133988985Y-75257519D01*
X134107519Y-75138985D01*
X134246900Y-75045853D01*
X134401772Y-74981703D01*
X134566184Y-74949000D01*
X134733816Y-74949000D01*
X134898228Y-74981703D01*
G37*
G36*
X121698228Y-74611703D02*
G01*
X121853100Y-74675853D01*
X121992481Y-74768985D01*
X122111015Y-74887519D01*
X122204147Y-75026900D01*
X122268297Y-75181772D01*
X122301000Y-75346184D01*
X122301000Y-75513816D01*
X122268297Y-75678228D01*
X122204147Y-75833100D01*
X122111015Y-75972481D01*
X121992481Y-76091015D01*
X121853100Y-76184147D01*
X121698228Y-76248297D01*
X121533816Y-76281000D01*
X121366184Y-76281000D01*
X121201772Y-76248297D01*
X121046900Y-76184147D01*
X120907519Y-76091015D01*
X120788985Y-75972481D01*
X120695853Y-75833100D01*
X120631703Y-75678228D01*
X120599000Y-75513816D01*
X120599000Y-75346184D01*
X120631703Y-75181772D01*
X120695853Y-75026900D01*
X120788985Y-74887519D01*
X120907519Y-74768985D01*
X121046900Y-74675853D01*
X121201772Y-74611703D01*
X121366184Y-74579000D01*
X121533816Y-74579000D01*
X121698228Y-74611703D01*
G37*
G36*
X129318228Y-74611703D02*
G01*
X129473100Y-74675853D01*
X129612481Y-74768985D01*
X129731015Y-74887519D01*
X129824147Y-75026900D01*
X129888297Y-75181772D01*
X129921000Y-75346184D01*
X129921000Y-75513816D01*
X129888297Y-75678228D01*
X129824147Y-75833100D01*
X129731015Y-75972481D01*
X129612481Y-76091015D01*
X129473100Y-76184147D01*
X129318228Y-76248297D01*
X129153816Y-76281000D01*
X128986184Y-76281000D01*
X128821772Y-76248297D01*
X128666900Y-76184147D01*
X128527519Y-76091015D01*
X128408985Y-75972481D01*
X128315853Y-75833100D01*
X128251703Y-75678228D01*
X128219000Y-75513816D01*
X128219000Y-75346184D01*
X128251703Y-75181772D01*
X128315853Y-75026900D01*
X128408985Y-74887519D01*
X128527519Y-74768985D01*
X128666900Y-74675853D01*
X128821772Y-74611703D01*
X128986184Y-74579000D01*
X129153816Y-74579000D01*
X129318228Y-74611703D01*
G37*
G36*
X129318228Y-72071703D02*
G01*
X129473100Y-72135853D01*
X129612481Y-72228985D01*
X129731015Y-72347519D01*
X129824147Y-72486900D01*
X129888297Y-72641772D01*
X129921000Y-72806184D01*
X129921000Y-72973816D01*
X129888297Y-73138228D01*
X129824147Y-73293100D01*
X129731015Y-73432481D01*
X129612481Y-73551015D01*
X129473100Y-73644147D01*
X129318228Y-73708297D01*
X129153816Y-73741000D01*
X128986184Y-73741000D01*
X128821772Y-73708297D01*
X128666900Y-73644147D01*
X128527519Y-73551015D01*
X128408985Y-73432481D01*
X128315853Y-73293100D01*
X128251703Y-73138228D01*
X128219000Y-72973816D01*
X128219000Y-72806184D01*
X128251703Y-72641772D01*
X128315853Y-72486900D01*
X128408985Y-72347519D01*
X128527519Y-72228985D01*
X128666900Y-72135853D01*
X128821772Y-72071703D01*
X128986184Y-72039000D01*
X129153816Y-72039000D01*
X129318228Y-72071703D01*
G37*
G36*
X121698228Y-72071703D02*
G01*
X121853100Y-72135853D01*
X121992481Y-72228985D01*
X122111015Y-72347519D01*
X122204147Y-72486900D01*
X122268297Y-72641772D01*
X122301000Y-72806184D01*
X122301000Y-72973816D01*
X122268297Y-73138228D01*
X122204147Y-73293100D01*
X122111015Y-73432481D01*
X121992481Y-73551015D01*
X121853100Y-73644147D01*
X121698228Y-73708297D01*
X121533816Y-73741000D01*
X121366184Y-73741000D01*
X121201772Y-73708297D01*
X121046900Y-73644147D01*
X120907519Y-73551015D01*
X120788985Y-73432481D01*
X120695853Y-73293100D01*
X120631703Y-73138228D01*
X120599000Y-72973816D01*
X120599000Y-72806184D01*
X120631703Y-72641772D01*
X120695853Y-72486900D01*
X120788985Y-72347519D01*
X120907519Y-72228985D01*
X121046900Y-72135853D01*
X121201772Y-72071703D01*
X121366184Y-72039000D01*
X121533816Y-72039000D01*
X121698228Y-72071703D01*
G37*
G36*
X103148228Y-71431703D02*
G01*
X103303100Y-71495853D01*
X103442481Y-71588985D01*
X103561015Y-71707519D01*
X103654147Y-71846900D01*
X103718297Y-72001772D01*
X103751000Y-72166184D01*
X103751000Y-72333816D01*
X103718297Y-72498228D01*
X103654147Y-72653100D01*
X103561015Y-72792481D01*
X103442481Y-72911015D01*
X103303100Y-73004147D01*
X103148228Y-73068297D01*
X102983816Y-73101000D01*
X102816184Y-73101000D01*
X102651772Y-73068297D01*
X102496900Y-73004147D01*
X102357519Y-72911015D01*
X102238985Y-72792481D01*
X102145853Y-72653100D01*
X102081703Y-72498228D01*
X102049000Y-72333816D01*
X102049000Y-72166184D01*
X102081703Y-72001772D01*
X102145853Y-71846900D01*
X102238985Y-71707519D01*
X102357519Y-71588985D01*
X102496900Y-71495853D01*
X102651772Y-71431703D01*
X102816184Y-71399000D01*
X102983816Y-71399000D01*
X103148228Y-71431703D01*
G37*
G36*
X105648228Y-71431703D02*
G01*
X105803100Y-71495853D01*
X105942481Y-71588985D01*
X106061015Y-71707519D01*
X106154147Y-71846900D01*
X106218297Y-72001772D01*
X106251000Y-72166184D01*
X106251000Y-72333816D01*
X106218297Y-72498228D01*
X106154147Y-72653100D01*
X106061015Y-72792481D01*
X105942481Y-72911015D01*
X105803100Y-73004147D01*
X105648228Y-73068297D01*
X105483816Y-73101000D01*
X105316184Y-73101000D01*
X105151772Y-73068297D01*
X104996900Y-73004147D01*
X104857519Y-72911015D01*
X104738985Y-72792481D01*
X104645853Y-72653100D01*
X104581703Y-72498228D01*
X104549000Y-72333816D01*
X104549000Y-72166184D01*
X104581703Y-72001772D01*
X104645853Y-71846900D01*
X104738985Y-71707519D01*
X104857519Y-71588985D01*
X104996900Y-71495853D01*
X105151772Y-71431703D01*
X105316184Y-71399000D01*
X105483816Y-71399000D01*
X105648228Y-71431703D01*
G37*
G36*
X115968228Y-71411703D02*
G01*
X116123100Y-71475853D01*
X116262481Y-71568985D01*
X116381015Y-71687519D01*
X116474147Y-71826900D01*
X116538297Y-71981772D01*
X116571000Y-72146184D01*
X116571000Y-72313816D01*
X116538297Y-72478228D01*
X116474147Y-72633100D01*
X116381015Y-72772481D01*
X116262481Y-72891015D01*
X116123100Y-72984147D01*
X115968228Y-73048297D01*
X115803816Y-73081000D01*
X115636184Y-73081000D01*
X115471772Y-73048297D01*
X115316900Y-72984147D01*
X115177519Y-72891015D01*
X115058985Y-72772481D01*
X114965853Y-72633100D01*
X114901703Y-72478228D01*
X114869000Y-72313816D01*
X114869000Y-72146184D01*
X114901703Y-71981772D01*
X114965853Y-71826900D01*
X115058985Y-71687519D01*
X115177519Y-71568985D01*
X115316900Y-71475853D01*
X115471772Y-71411703D01*
X115636184Y-71379000D01*
X115803816Y-71379000D01*
X115968228Y-71411703D01*
G37*
G36*
X108348228Y-71411703D02*
G01*
X108503100Y-71475853D01*
X108642481Y-71568985D01*
X108761015Y-71687519D01*
X108854147Y-71826900D01*
X108918297Y-71981772D01*
X108951000Y-72146184D01*
X108951000Y-72313816D01*
X108918297Y-72478228D01*
X108854147Y-72633100D01*
X108761015Y-72772481D01*
X108642481Y-72891015D01*
X108503100Y-72984147D01*
X108348228Y-73048297D01*
X108183816Y-73081000D01*
X108016184Y-73081000D01*
X107851772Y-73048297D01*
X107696900Y-72984147D01*
X107557519Y-72891015D01*
X107438985Y-72772481D01*
X107345853Y-72633100D01*
X107281703Y-72478228D01*
X107249000Y-72313816D01*
X107249000Y-72146184D01*
X107281703Y-71981772D01*
X107345853Y-71826900D01*
X107438985Y-71687519D01*
X107557519Y-71568985D01*
X107696900Y-71475853D01*
X107851772Y-71411703D01*
X108016184Y-71379000D01*
X108183816Y-71379000D01*
X108348228Y-71411703D01*
G37*
G36*
X121698228Y-69531703D02*
G01*
X121853100Y-69595853D01*
X121992481Y-69688985D01*
X122111015Y-69807519D01*
X122204147Y-69946900D01*
X122268297Y-70101772D01*
X122301000Y-70266184D01*
X122301000Y-70433816D01*
X122268297Y-70598228D01*
X122204147Y-70753100D01*
X122111015Y-70892481D01*
X121992481Y-71011015D01*
X121853100Y-71104147D01*
X121698228Y-71168297D01*
X121533816Y-71201000D01*
X121366184Y-71201000D01*
X121201772Y-71168297D01*
X121046900Y-71104147D01*
X120907519Y-71011015D01*
X120788985Y-70892481D01*
X120695853Y-70753100D01*
X120631703Y-70598228D01*
X120599000Y-70433816D01*
X120599000Y-70266184D01*
X120631703Y-70101772D01*
X120695853Y-69946900D01*
X120788985Y-69807519D01*
X120907519Y-69688985D01*
X121046900Y-69595853D01*
X121201772Y-69531703D01*
X121366184Y-69499000D01*
X121533816Y-69499000D01*
X121698228Y-69531703D01*
G37*
G36*
X129318228Y-69531703D02*
G01*
X129473100Y-69595853D01*
X129612481Y-69688985D01*
X129731015Y-69807519D01*
X129824147Y-69946900D01*
X129888297Y-70101772D01*
X129921000Y-70266184D01*
X129921000Y-70433816D01*
X129888297Y-70598228D01*
X129824147Y-70753100D01*
X129731015Y-70892481D01*
X129612481Y-71011015D01*
X129473100Y-71104147D01*
X129318228Y-71168297D01*
X129153816Y-71201000D01*
X128986184Y-71201000D01*
X128821772Y-71168297D01*
X128666900Y-71104147D01*
X128527519Y-71011015D01*
X128408985Y-70892481D01*
X128315853Y-70753100D01*
X128251703Y-70598228D01*
X128219000Y-70433816D01*
X128219000Y-70266184D01*
X128251703Y-70101772D01*
X128315853Y-69946900D01*
X128408985Y-69807519D01*
X128527519Y-69688985D01*
X128666900Y-69595853D01*
X128821772Y-69531703D01*
X128986184Y-69499000D01*
X129153816Y-69499000D01*
X129318228Y-69531703D01*
G37*
G36*
X115968228Y-68871703D02*
G01*
X116123100Y-68935853D01*
X116262481Y-69028985D01*
X116381015Y-69147519D01*
X116474147Y-69286900D01*
X116538297Y-69441772D01*
X116571000Y-69606184D01*
X116571000Y-69773816D01*
X116538297Y-69938228D01*
X116474147Y-70093100D01*
X116381015Y-70232481D01*
X116262481Y-70351015D01*
X116123100Y-70444147D01*
X115968228Y-70508297D01*
X115803816Y-70541000D01*
X115636184Y-70541000D01*
X115471772Y-70508297D01*
X115316900Y-70444147D01*
X115177519Y-70351015D01*
X115058985Y-70232481D01*
X114965853Y-70093100D01*
X114901703Y-69938228D01*
X114869000Y-69773816D01*
X114869000Y-69606184D01*
X114901703Y-69441772D01*
X114965853Y-69286900D01*
X115058985Y-69147519D01*
X115177519Y-69028985D01*
X115316900Y-68935853D01*
X115471772Y-68871703D01*
X115636184Y-68839000D01*
X115803816Y-68839000D01*
X115968228Y-68871703D01*
G37*
G36*
X108348228Y-68871703D02*
G01*
X108503100Y-68935853D01*
X108642481Y-69028985D01*
X108761015Y-69147519D01*
X108854147Y-69286900D01*
X108918297Y-69441772D01*
X108951000Y-69606184D01*
X108951000Y-69773816D01*
X108918297Y-69938228D01*
X108854147Y-70093100D01*
X108761015Y-70232481D01*
X108642481Y-70351015D01*
X108503100Y-70444147D01*
X108348228Y-70508297D01*
X108183816Y-70541000D01*
X108016184Y-70541000D01*
X107851772Y-70508297D01*
X107696900Y-70444147D01*
X107557519Y-70351015D01*
X107438985Y-70232481D01*
X107345853Y-70093100D01*
X107281703Y-69938228D01*
X107249000Y-69773816D01*
X107249000Y-69606184D01*
X107281703Y-69441772D01*
X107345853Y-69286900D01*
X107438985Y-69147519D01*
X107557519Y-69028985D01*
X107696900Y-68935853D01*
X107851772Y-68871703D01*
X108016184Y-68839000D01*
X108183816Y-68839000D01*
X108348228Y-68871703D01*
G37*
G36*
X133601000Y-69451000D02*
G01*
X131799000Y-69451000D01*
X131799000Y-67649000D01*
X133601000Y-67649000D01*
X133601000Y-69451000D01*
G37*
G36*
X129318228Y-66991703D02*
G01*
X129473100Y-67055853D01*
X129612481Y-67148985D01*
X129731015Y-67267519D01*
X129824147Y-67406900D01*
X129888297Y-67561772D01*
X129921000Y-67726184D01*
X129921000Y-67893816D01*
X129888297Y-68058228D01*
X129824147Y-68213100D01*
X129731015Y-68352481D01*
X129612481Y-68471015D01*
X129473100Y-68564147D01*
X129318228Y-68628297D01*
X129153816Y-68661000D01*
X128986184Y-68661000D01*
X128821772Y-68628297D01*
X128666900Y-68564147D01*
X128527519Y-68471015D01*
X128408985Y-68352481D01*
X128315853Y-68213100D01*
X128251703Y-68058228D01*
X128219000Y-67893816D01*
X128219000Y-67726184D01*
X128251703Y-67561772D01*
X128315853Y-67406900D01*
X128408985Y-67267519D01*
X128527519Y-67148985D01*
X128666900Y-67055853D01*
X128821772Y-66991703D01*
X128986184Y-66959000D01*
X129153816Y-66959000D01*
X129318228Y-66991703D01*
G37*
G36*
X121698228Y-66991703D02*
G01*
X121853100Y-67055853D01*
X121992481Y-67148985D01*
X122111015Y-67267519D01*
X122204147Y-67406900D01*
X122268297Y-67561772D01*
X122301000Y-67726184D01*
X122301000Y-67893816D01*
X122268297Y-68058228D01*
X122204147Y-68213100D01*
X122111015Y-68352481D01*
X121992481Y-68471015D01*
X121853100Y-68564147D01*
X121698228Y-68628297D01*
X121533816Y-68661000D01*
X121366184Y-68661000D01*
X121201772Y-68628297D01*
X121046900Y-68564147D01*
X120907519Y-68471015D01*
X120788985Y-68352481D01*
X120695853Y-68213100D01*
X120631703Y-68058228D01*
X120599000Y-67893816D01*
X120599000Y-67726184D01*
X120631703Y-67561772D01*
X120695853Y-67406900D01*
X120788985Y-67267519D01*
X120907519Y-67148985D01*
X121046900Y-67055853D01*
X121201772Y-66991703D01*
X121366184Y-66959000D01*
X121533816Y-66959000D01*
X121698228Y-66991703D01*
G37*
G36*
X118648228Y-66631703D02*
G01*
X118803100Y-66695853D01*
X118942481Y-66788985D01*
X119061015Y-66907519D01*
X119154147Y-67046900D01*
X119218297Y-67201772D01*
X119251000Y-67366184D01*
X119251000Y-67533816D01*
X119218297Y-67698228D01*
X119154147Y-67853100D01*
X119061015Y-67992481D01*
X118942481Y-68111015D01*
X118803100Y-68204147D01*
X118648228Y-68268297D01*
X118483816Y-68301000D01*
X118316184Y-68301000D01*
X118151772Y-68268297D01*
X117996900Y-68204147D01*
X117857519Y-68111015D01*
X117738985Y-67992481D01*
X117645853Y-67853100D01*
X117581703Y-67698228D01*
X117549000Y-67533816D01*
X117549000Y-67366184D01*
X117581703Y-67201772D01*
X117645853Y-67046900D01*
X117738985Y-66907519D01*
X117857519Y-66788985D01*
X117996900Y-66695853D01*
X118151772Y-66631703D01*
X118316184Y-66599000D01*
X118483816Y-66599000D01*
X118648228Y-66631703D01*
G37*
G36*
X105648228Y-66531703D02*
G01*
X105803100Y-66595853D01*
X105942481Y-66688985D01*
X106061015Y-66807519D01*
X106154147Y-66946900D01*
X106218297Y-67101772D01*
X106251000Y-67266184D01*
X106251000Y-67433816D01*
X106218297Y-67598228D01*
X106154147Y-67753100D01*
X106061015Y-67892481D01*
X105942481Y-68011015D01*
X105803100Y-68104147D01*
X105648228Y-68168297D01*
X105483816Y-68201000D01*
X105316184Y-68201000D01*
X105151772Y-68168297D01*
X104996900Y-68104147D01*
X104857519Y-68011015D01*
X104738985Y-67892481D01*
X104645853Y-67753100D01*
X104581703Y-67598228D01*
X104549000Y-67433816D01*
X104549000Y-67266184D01*
X104581703Y-67101772D01*
X104645853Y-66946900D01*
X104738985Y-66807519D01*
X104857519Y-66688985D01*
X104996900Y-66595853D01*
X105151772Y-66531703D01*
X105316184Y-66499000D01*
X105483816Y-66499000D01*
X105648228Y-66531703D01*
G37*
G36*
X115968228Y-66331703D02*
G01*
X116123100Y-66395853D01*
X116262481Y-66488985D01*
X116381015Y-66607519D01*
X116474147Y-66746900D01*
X116538297Y-66901772D01*
X116571000Y-67066184D01*
X116571000Y-67233816D01*
X116538297Y-67398228D01*
X116474147Y-67553100D01*
X116381015Y-67692481D01*
X116262481Y-67811015D01*
X116123100Y-67904147D01*
X115968228Y-67968297D01*
X115803816Y-68001000D01*
X115636184Y-68001000D01*
X115471772Y-67968297D01*
X115316900Y-67904147D01*
X115177519Y-67811015D01*
X115058985Y-67692481D01*
X114965853Y-67553100D01*
X114901703Y-67398228D01*
X114869000Y-67233816D01*
X114869000Y-67066184D01*
X114901703Y-66901772D01*
X114965853Y-66746900D01*
X115058985Y-66607519D01*
X115177519Y-66488985D01*
X115316900Y-66395853D01*
X115471772Y-66331703D01*
X115636184Y-66299000D01*
X115803816Y-66299000D01*
X115968228Y-66331703D01*
G37*
G36*
X108348228Y-66331703D02*
G01*
X108503100Y-66395853D01*
X108642481Y-66488985D01*
X108761015Y-66607519D01*
X108854147Y-66746900D01*
X108918297Y-66901772D01*
X108951000Y-67066184D01*
X108951000Y-67233816D01*
X108918297Y-67398228D01*
X108854147Y-67553100D01*
X108761015Y-67692481D01*
X108642481Y-67811015D01*
X108503100Y-67904147D01*
X108348228Y-67968297D01*
X108183816Y-68001000D01*
X108016184Y-68001000D01*
X107851772Y-67968297D01*
X107696900Y-67904147D01*
X107557519Y-67811015D01*
X107438985Y-67692481D01*
X107345853Y-67553100D01*
X107281703Y-67398228D01*
X107249000Y-67233816D01*
X107249000Y-67066184D01*
X107281703Y-66901772D01*
X107345853Y-66746900D01*
X107438985Y-66607519D01*
X107557519Y-66488985D01*
X107696900Y-66395853D01*
X107851772Y-66331703D01*
X108016184Y-66299000D01*
X108183816Y-66299000D01*
X108348228Y-66331703D01*
G37*
G36*
X132813512Y-65113927D02*
G01*
X132962812Y-65143624D01*
X133126784Y-65211544D01*
X133274354Y-65310147D01*
X133399853Y-65435646D01*
X133498456Y-65583216D01*
X133566376Y-65747188D01*
X133601000Y-65921259D01*
X133601000Y-66098741D01*
X133566376Y-66272812D01*
X133498456Y-66436784D01*
X133399853Y-66584354D01*
X133274354Y-66709853D01*
X133126784Y-66808456D01*
X132962812Y-66876376D01*
X132835139Y-66901771D01*
X132788742Y-66911000D01*
X132611258Y-66911000D01*
X132564861Y-66901771D01*
X132437188Y-66876376D01*
X132273216Y-66808456D01*
X132125646Y-66709853D01*
X132000147Y-66584354D01*
X131901544Y-66436784D01*
X131833624Y-66272812D01*
X131799000Y-66098741D01*
X131799000Y-65921259D01*
X131833624Y-65747188D01*
X131901544Y-65583216D01*
X132000147Y-65435646D01*
X132125646Y-65310147D01*
X132273216Y-65211544D01*
X132437188Y-65143624D01*
X132586488Y-65113927D01*
X132611258Y-65109000D01*
X132788742Y-65109000D01*
X132813512Y-65113927D01*
G37*
G36*
X141325256Y-63241298D02*
G01*
X141431579Y-63262447D01*
X141644037Y-63350450D01*
X141718417Y-63381259D01*
X141732042Y-63386903D01*
X142002451Y-63567585D01*
X142232415Y-63797549D01*
X142413097Y-64067958D01*
X142534799Y-64361772D01*
X142537553Y-64368422D01*
X142601000Y-64687389D01*
X142601000Y-65012611D01*
X142583969Y-65098229D01*
X142537553Y-65331579D01*
X142413097Y-65632042D01*
X142232415Y-65902451D01*
X142002451Y-66132415D01*
X141732042Y-66313097D01*
X141732041Y-66313098D01*
X141732040Y-66313098D01*
X141644037Y-66349550D01*
X141431579Y-66437553D01*
X141325256Y-66458702D01*
X141112611Y-66501000D01*
X140787389Y-66501000D01*
X140574744Y-66458702D01*
X140468421Y-66437553D01*
X140255963Y-66349550D01*
X140167960Y-66313098D01*
X140167959Y-66313098D01*
X140167958Y-66313097D01*
X139897549Y-66132415D01*
X139667585Y-65902451D01*
X139486903Y-65632042D01*
X139362447Y-65331579D01*
X139316031Y-65098229D01*
X139299000Y-65012611D01*
X139299000Y-64687389D01*
X139362447Y-64368422D01*
X139365202Y-64361772D01*
X139486903Y-64067958D01*
X139667585Y-63797549D01*
X139897549Y-63567585D01*
X140167958Y-63386903D01*
X140181584Y-63381259D01*
X140255963Y-63350450D01*
X140468421Y-63262447D01*
X140574744Y-63241298D01*
X140787389Y-63199000D01*
X141112611Y-63199000D01*
X141325256Y-63241298D01*
G37*
G36*
X129318228Y-64451703D02*
G01*
X129473100Y-64515853D01*
X129612481Y-64608985D01*
X129731015Y-64727519D01*
X129824147Y-64866900D01*
X129888297Y-65021772D01*
X129921000Y-65186184D01*
X129921000Y-65353816D01*
X129888297Y-65518228D01*
X129824147Y-65673100D01*
X129731015Y-65812481D01*
X129612481Y-65931015D01*
X129473100Y-66024147D01*
X129318228Y-66088297D01*
X129153816Y-66121000D01*
X128986184Y-66121000D01*
X128821772Y-66088297D01*
X128666900Y-66024147D01*
X128527519Y-65931015D01*
X128408985Y-65812481D01*
X128315853Y-65673100D01*
X128251703Y-65518228D01*
X128219000Y-65353816D01*
X128219000Y-65186184D01*
X128251703Y-65021772D01*
X128315853Y-64866900D01*
X128408985Y-64727519D01*
X128527519Y-64608985D01*
X128666900Y-64515853D01*
X128821772Y-64451703D01*
X128986184Y-64419000D01*
X129153816Y-64419000D01*
X129318228Y-64451703D01*
G37*
G36*
X121698228Y-64451703D02*
G01*
X121853100Y-64515853D01*
X121992481Y-64608985D01*
X122111015Y-64727519D01*
X122204147Y-64866900D01*
X122268297Y-65021772D01*
X122301000Y-65186184D01*
X122301000Y-65353816D01*
X122268297Y-65518228D01*
X122204147Y-65673100D01*
X122111015Y-65812481D01*
X121992481Y-65931015D01*
X121853100Y-66024147D01*
X121698228Y-66088297D01*
X121533816Y-66121000D01*
X121366184Y-66121000D01*
X121201772Y-66088297D01*
X121046900Y-66024147D01*
X120907519Y-65931015D01*
X120788985Y-65812481D01*
X120695853Y-65673100D01*
X120631703Y-65518228D01*
X120599000Y-65353816D01*
X120599000Y-65186184D01*
X120631703Y-65021772D01*
X120695853Y-64866900D01*
X120788985Y-64727519D01*
X120907519Y-64608985D01*
X121046900Y-64515853D01*
X121201772Y-64451703D01*
X121366184Y-64419000D01*
X121533816Y-64419000D01*
X121698228Y-64451703D01*
G37*
G36*
X118648228Y-64131703D02*
G01*
X118803100Y-64195853D01*
X118942481Y-64288985D01*
X119061015Y-64407519D01*
X119154147Y-64546900D01*
X119218297Y-64701772D01*
X119251000Y-64866184D01*
X119251000Y-65033816D01*
X119218297Y-65198228D01*
X119154147Y-65353100D01*
X119061015Y-65492481D01*
X118942481Y-65611015D01*
X118803100Y-65704147D01*
X118648228Y-65768297D01*
X118483816Y-65801000D01*
X118316184Y-65801000D01*
X118151772Y-65768297D01*
X117996900Y-65704147D01*
X117857519Y-65611015D01*
X117738985Y-65492481D01*
X117645853Y-65353100D01*
X117581703Y-65198228D01*
X117549000Y-65033816D01*
X117549000Y-64866184D01*
X117581703Y-64701772D01*
X117645853Y-64546900D01*
X117738985Y-64407519D01*
X117857519Y-64288985D01*
X117996900Y-64195853D01*
X118151772Y-64131703D01*
X118316184Y-64099000D01*
X118483816Y-64099000D01*
X118648228Y-64131703D01*
G37*
G36*
X105648228Y-64031703D02*
G01*
X105803100Y-64095853D01*
X105942481Y-64188985D01*
X106061015Y-64307519D01*
X106154147Y-64446900D01*
X106218297Y-64601772D01*
X106251000Y-64766184D01*
X106251000Y-64933816D01*
X106218297Y-65098228D01*
X106154147Y-65253100D01*
X106061015Y-65392481D01*
X105942481Y-65511015D01*
X105803100Y-65604147D01*
X105648228Y-65668297D01*
X105483816Y-65701000D01*
X105316184Y-65701000D01*
X105151772Y-65668297D01*
X104996900Y-65604147D01*
X104857519Y-65511015D01*
X104738985Y-65392481D01*
X104645853Y-65253100D01*
X104581703Y-65098228D01*
X104549000Y-64933816D01*
X104549000Y-64766184D01*
X104581703Y-64601772D01*
X104645853Y-64446900D01*
X104738985Y-64307519D01*
X104857519Y-64188985D01*
X104996900Y-64095853D01*
X105151772Y-64031703D01*
X105316184Y-63999000D01*
X105483816Y-63999000D01*
X105648228Y-64031703D01*
G37*
G36*
X108348228Y-63791703D02*
G01*
X108503100Y-63855853D01*
X108642481Y-63948985D01*
X108761015Y-64067519D01*
X108854147Y-64206900D01*
X108918297Y-64361772D01*
X108951000Y-64526184D01*
X108951000Y-64693816D01*
X108918297Y-64858228D01*
X108854147Y-65013100D01*
X108761015Y-65152481D01*
X108642481Y-65271015D01*
X108503100Y-65364147D01*
X108348228Y-65428297D01*
X108183816Y-65461000D01*
X108016184Y-65461000D01*
X107851772Y-65428297D01*
X107696900Y-65364147D01*
X107557519Y-65271015D01*
X107438985Y-65152481D01*
X107345853Y-65013100D01*
X107281703Y-64858228D01*
X107249000Y-64693816D01*
X107249000Y-64526184D01*
X107281703Y-64361772D01*
X107345853Y-64206900D01*
X107438985Y-64067519D01*
X107557519Y-63948985D01*
X107696900Y-63855853D01*
X107851772Y-63791703D01*
X108016184Y-63759000D01*
X108183816Y-63759000D01*
X108348228Y-63791703D01*
G37*
G36*
X115968228Y-63791703D02*
G01*
X116123100Y-63855853D01*
X116262481Y-63948985D01*
X116381015Y-64067519D01*
X116474147Y-64206900D01*
X116538297Y-64361772D01*
X116571000Y-64526184D01*
X116571000Y-64693816D01*
X116538297Y-64858228D01*
X116474147Y-65013100D01*
X116381015Y-65152481D01*
X116262481Y-65271015D01*
X116123100Y-65364147D01*
X115968228Y-65428297D01*
X115803816Y-65461000D01*
X115636184Y-65461000D01*
X115471772Y-65428297D01*
X115316900Y-65364147D01*
X115177519Y-65271015D01*
X115058985Y-65152481D01*
X114965853Y-65013100D01*
X114901703Y-64858228D01*
X114869000Y-64693816D01*
X114869000Y-64526184D01*
X114901703Y-64361772D01*
X114965853Y-64206900D01*
X115058985Y-64067519D01*
X115177519Y-63948985D01*
X115316900Y-63855853D01*
X115471772Y-63791703D01*
X115636184Y-63759000D01*
X115803816Y-63759000D01*
X115968228Y-63791703D01*
G37*
G36*
X132813512Y-62573927D02*
G01*
X132962812Y-62603624D01*
X133126784Y-62671544D01*
X133274354Y-62770147D01*
X133399853Y-62895646D01*
X133498456Y-63043216D01*
X133566376Y-63207188D01*
X133601000Y-63381259D01*
X133601000Y-63558741D01*
X133566376Y-63732812D01*
X133498456Y-63896784D01*
X133399853Y-64044354D01*
X133274354Y-64169853D01*
X133126784Y-64268456D01*
X132962812Y-64336376D01*
X132835139Y-64361771D01*
X132788742Y-64371000D01*
X132611258Y-64371000D01*
X132564861Y-64361771D01*
X132437188Y-64336376D01*
X132273216Y-64268456D01*
X132125646Y-64169853D01*
X132000147Y-64044354D01*
X131901544Y-63896784D01*
X131833624Y-63732812D01*
X131799000Y-63558741D01*
X131799000Y-63381259D01*
X131833624Y-63207188D01*
X131901544Y-63043216D01*
X132000147Y-62895646D01*
X132125646Y-62770147D01*
X132273216Y-62671544D01*
X132437188Y-62603624D01*
X132586488Y-62573927D01*
X132611258Y-62569000D01*
X132788742Y-62569000D01*
X132813512Y-62573927D01*
G37*
G36*
X121698228Y-61911703D02*
G01*
X121853100Y-61975853D01*
X121992481Y-62068985D01*
X122111015Y-62187519D01*
X122204147Y-62326900D01*
X122268297Y-62481772D01*
X122301000Y-62646184D01*
X122301000Y-62813816D01*
X122268297Y-62978228D01*
X122204147Y-63133100D01*
X122111015Y-63272481D01*
X121992481Y-63391015D01*
X121853100Y-63484147D01*
X121698228Y-63548297D01*
X121533816Y-63581000D01*
X121366184Y-63581000D01*
X121201772Y-63548297D01*
X121046900Y-63484147D01*
X120907519Y-63391015D01*
X120788985Y-63272481D01*
X120695853Y-63133100D01*
X120631703Y-62978228D01*
X120599000Y-62813816D01*
X120599000Y-62646184D01*
X120631703Y-62481772D01*
X120695853Y-62326900D01*
X120788985Y-62187519D01*
X120907519Y-62068985D01*
X121046900Y-61975853D01*
X121201772Y-61911703D01*
X121366184Y-61879000D01*
X121533816Y-61879000D01*
X121698228Y-61911703D01*
G37*
G36*
X129318228Y-61911703D02*
G01*
X129473100Y-61975853D01*
X129612481Y-62068985D01*
X129731015Y-62187519D01*
X129824147Y-62326900D01*
X129888297Y-62481772D01*
X129921000Y-62646184D01*
X129921000Y-62813816D01*
X129888297Y-62978228D01*
X129824147Y-63133100D01*
X129731015Y-63272481D01*
X129612481Y-63391015D01*
X129473100Y-63484147D01*
X129318228Y-63548297D01*
X129153816Y-63581000D01*
X128986184Y-63581000D01*
X128821772Y-63548297D01*
X128666900Y-63484147D01*
X128527519Y-63391015D01*
X128408985Y-63272481D01*
X128315853Y-63133100D01*
X128251703Y-62978228D01*
X128219000Y-62813816D01*
X128219000Y-62646184D01*
X128251703Y-62481772D01*
X128315853Y-62326900D01*
X128408985Y-62187519D01*
X128527519Y-62068985D01*
X128666900Y-61975853D01*
X128821772Y-61911703D01*
X128986184Y-61879000D01*
X129153816Y-61879000D01*
X129318228Y-61911703D01*
G37*
G36*
X115968228Y-61251703D02*
G01*
X116123100Y-61315853D01*
X116262481Y-61408985D01*
X116381015Y-61527519D01*
X116474147Y-61666900D01*
X116538297Y-61821772D01*
X116571000Y-61986184D01*
X116571000Y-62153816D01*
X116538297Y-62318228D01*
X116474147Y-62473100D01*
X116381015Y-62612481D01*
X116262481Y-62731015D01*
X116123100Y-62824147D01*
X115968228Y-62888297D01*
X115803816Y-62921000D01*
X115636184Y-62921000D01*
X115471772Y-62888297D01*
X115316900Y-62824147D01*
X115177519Y-62731015D01*
X115058985Y-62612481D01*
X114965853Y-62473100D01*
X114901703Y-62318228D01*
X114869000Y-62153816D01*
X114869000Y-61986184D01*
X114901703Y-61821772D01*
X114965853Y-61666900D01*
X115058985Y-61527519D01*
X115177519Y-61408985D01*
X115316900Y-61315853D01*
X115471772Y-61251703D01*
X115636184Y-61219000D01*
X115803816Y-61219000D01*
X115968228Y-61251703D01*
G37*
G36*
X108348228Y-61251703D02*
G01*
X108503100Y-61315853D01*
X108642481Y-61408985D01*
X108761015Y-61527519D01*
X108854147Y-61666900D01*
X108918297Y-61821772D01*
X108951000Y-61986184D01*
X108951000Y-62153816D01*
X108918297Y-62318228D01*
X108854147Y-62473100D01*
X108761015Y-62612481D01*
X108642481Y-62731015D01*
X108503100Y-62824147D01*
X108348228Y-62888297D01*
X108183816Y-62921000D01*
X108016184Y-62921000D01*
X107851772Y-62888297D01*
X107696900Y-62824147D01*
X107557519Y-62731015D01*
X107438985Y-62612481D01*
X107345853Y-62473100D01*
X107281703Y-62318228D01*
X107249000Y-62153816D01*
X107249000Y-61986184D01*
X107281703Y-61821772D01*
X107345853Y-61666900D01*
X107438985Y-61527519D01*
X107557519Y-61408985D01*
X107696900Y-61315853D01*
X107851772Y-61251703D01*
X108016184Y-61219000D01*
X108183816Y-61219000D01*
X108348228Y-61251703D01*
G37*
G36*
X118648228Y-61031703D02*
G01*
X118803100Y-61095853D01*
X118942481Y-61188985D01*
X119061015Y-61307519D01*
X119154147Y-61446900D01*
X119218297Y-61601772D01*
X119251000Y-61766184D01*
X119251000Y-61933816D01*
X119218297Y-62098228D01*
X119154147Y-62253100D01*
X119061015Y-62392481D01*
X118942481Y-62511015D01*
X118803100Y-62604147D01*
X118648228Y-62668297D01*
X118483816Y-62701000D01*
X118316184Y-62701000D01*
X118151772Y-62668297D01*
X117996900Y-62604147D01*
X117857519Y-62511015D01*
X117738985Y-62392481D01*
X117645853Y-62253100D01*
X117581703Y-62098228D01*
X117549000Y-61933816D01*
X117549000Y-61766184D01*
X117581703Y-61601772D01*
X117645853Y-61446900D01*
X117738985Y-61307519D01*
X117857519Y-61188985D01*
X117996900Y-61095853D01*
X118151772Y-61031703D01*
X118316184Y-60999000D01*
X118483816Y-60999000D01*
X118648228Y-61031703D01*
G37*
G36*
X105648228Y-60931703D02*
G01*
X105803100Y-60995853D01*
X105942481Y-61088985D01*
X106061015Y-61207519D01*
X106154147Y-61346900D01*
X106218297Y-61501772D01*
X106251000Y-61666184D01*
X106251000Y-61833816D01*
X106218297Y-61998228D01*
X106154147Y-62153100D01*
X106061015Y-62292481D01*
X105942481Y-62411015D01*
X105803100Y-62504147D01*
X105648228Y-62568297D01*
X105483816Y-62601000D01*
X105316184Y-62601000D01*
X105151772Y-62568297D01*
X104996900Y-62504147D01*
X104857519Y-62411015D01*
X104738985Y-62292481D01*
X104645853Y-62153100D01*
X104581703Y-61998228D01*
X104549000Y-61833816D01*
X104549000Y-61666184D01*
X104581703Y-61501772D01*
X104645853Y-61346900D01*
X104738985Y-61207519D01*
X104857519Y-61088985D01*
X104996900Y-60995853D01*
X105151772Y-60931703D01*
X105316184Y-60899000D01*
X105483816Y-60899000D01*
X105648228Y-60931703D01*
G37*
G36*
X132813512Y-60033927D02*
G01*
X132962812Y-60063624D01*
X133126784Y-60131544D01*
X133274354Y-60230147D01*
X133399853Y-60355646D01*
X133498456Y-60503216D01*
X133566376Y-60667188D01*
X133601000Y-60841259D01*
X133601000Y-61018741D01*
X133566376Y-61192812D01*
X133498456Y-61356784D01*
X133399853Y-61504354D01*
X133274354Y-61629853D01*
X133126784Y-61728456D01*
X132962812Y-61796376D01*
X132835139Y-61821771D01*
X132788742Y-61831000D01*
X132611258Y-61831000D01*
X132564861Y-61821771D01*
X132437188Y-61796376D01*
X132273216Y-61728456D01*
X132125646Y-61629853D01*
X132000147Y-61504354D01*
X131901544Y-61356784D01*
X131833624Y-61192812D01*
X131799000Y-61018741D01*
X131799000Y-60841259D01*
X131833624Y-60667188D01*
X131901544Y-60503216D01*
X132000147Y-60355646D01*
X132125646Y-60230147D01*
X132273216Y-60131544D01*
X132437188Y-60063624D01*
X132586488Y-60033927D01*
X132611258Y-60029000D01*
X132788742Y-60029000D01*
X132813512Y-60033927D01*
G37*
G36*
X129318228Y-59371703D02*
G01*
X129473100Y-59435853D01*
X129612481Y-59528985D01*
X129731015Y-59647519D01*
X129824147Y-59786900D01*
X129888297Y-59941772D01*
X129921000Y-60106184D01*
X129921000Y-60273816D01*
X129888297Y-60438228D01*
X129824147Y-60593100D01*
X129731015Y-60732481D01*
X129612481Y-60851015D01*
X129473100Y-60944147D01*
X129318228Y-61008297D01*
X129153816Y-61041000D01*
X128986184Y-61041000D01*
X128821772Y-61008297D01*
X128666900Y-60944147D01*
X128527519Y-60851015D01*
X128408985Y-60732481D01*
X128315853Y-60593100D01*
X128251703Y-60438228D01*
X128219000Y-60273816D01*
X128219000Y-60106184D01*
X128251703Y-59941772D01*
X128315853Y-59786900D01*
X128408985Y-59647519D01*
X128527519Y-59528985D01*
X128666900Y-59435853D01*
X128821772Y-59371703D01*
X128986184Y-59339000D01*
X129153816Y-59339000D01*
X129318228Y-59371703D01*
G37*
G36*
X121698228Y-59371703D02*
G01*
X121853100Y-59435853D01*
X121992481Y-59528985D01*
X122111015Y-59647519D01*
X122204147Y-59786900D01*
X122268297Y-59941772D01*
X122301000Y-60106184D01*
X122301000Y-60273816D01*
X122268297Y-60438228D01*
X122204147Y-60593100D01*
X122111015Y-60732481D01*
X121992481Y-60851015D01*
X121853100Y-60944147D01*
X121698228Y-61008297D01*
X121533816Y-61041000D01*
X121366184Y-61041000D01*
X121201772Y-61008297D01*
X121046900Y-60944147D01*
X120907519Y-60851015D01*
X120788985Y-60732481D01*
X120695853Y-60593100D01*
X120631703Y-60438228D01*
X120599000Y-60273816D01*
X120599000Y-60106184D01*
X120631703Y-59941772D01*
X120695853Y-59786900D01*
X120788985Y-59647519D01*
X120907519Y-59528985D01*
X121046900Y-59435853D01*
X121201772Y-59371703D01*
X121366184Y-59339000D01*
X121533816Y-59339000D01*
X121698228Y-59371703D01*
G37*
G36*
X108348228Y-58711703D02*
G01*
X108503100Y-58775853D01*
X108642481Y-58868985D01*
X108761015Y-58987519D01*
X108854147Y-59126900D01*
X108918297Y-59281772D01*
X108951000Y-59446184D01*
X108951000Y-59613816D01*
X108918297Y-59778228D01*
X108854147Y-59933100D01*
X108761015Y-60072481D01*
X108642481Y-60191015D01*
X108503100Y-60284147D01*
X108348228Y-60348297D01*
X108183816Y-60381000D01*
X108016184Y-60381000D01*
X107851772Y-60348297D01*
X107696900Y-60284147D01*
X107557519Y-60191015D01*
X107438985Y-60072481D01*
X107345853Y-59933100D01*
X107281703Y-59778228D01*
X107249000Y-59613816D01*
X107249000Y-59446184D01*
X107281703Y-59281772D01*
X107345853Y-59126900D01*
X107438985Y-58987519D01*
X107557519Y-58868985D01*
X107696900Y-58775853D01*
X107851772Y-58711703D01*
X108016184Y-58679000D01*
X108183816Y-58679000D01*
X108348228Y-58711703D01*
G37*
G36*
X115968228Y-58711703D02*
G01*
X116123100Y-58775853D01*
X116262481Y-58868985D01*
X116381015Y-58987519D01*
X116474147Y-59126900D01*
X116538297Y-59281772D01*
X116571000Y-59446184D01*
X116571000Y-59613816D01*
X116538297Y-59778228D01*
X116474147Y-59933100D01*
X116381015Y-60072481D01*
X116262481Y-60191015D01*
X116123100Y-60284147D01*
X115968228Y-60348297D01*
X115803816Y-60381000D01*
X115636184Y-60381000D01*
X115471772Y-60348297D01*
X115316900Y-60284147D01*
X115177519Y-60191015D01*
X115058985Y-60072481D01*
X114965853Y-59933100D01*
X114901703Y-59778228D01*
X114869000Y-59613816D01*
X114869000Y-59446184D01*
X114901703Y-59281772D01*
X114965853Y-59126900D01*
X115058985Y-58987519D01*
X115177519Y-58868985D01*
X115316900Y-58775853D01*
X115471772Y-58711703D01*
X115636184Y-58679000D01*
X115803816Y-58679000D01*
X115968228Y-58711703D01*
G37*
G36*
X118648228Y-58531703D02*
G01*
X118803100Y-58595853D01*
X118942481Y-58688985D01*
X119061015Y-58807519D01*
X119154147Y-58946900D01*
X119218297Y-59101772D01*
X119251000Y-59266184D01*
X119251000Y-59433816D01*
X119218297Y-59598228D01*
X119154147Y-59753100D01*
X119061015Y-59892481D01*
X118942481Y-60011015D01*
X118803100Y-60104147D01*
X118648228Y-60168297D01*
X118483816Y-60201000D01*
X118316184Y-60201000D01*
X118151772Y-60168297D01*
X117996900Y-60104147D01*
X117857519Y-60011015D01*
X117738985Y-59892481D01*
X117645853Y-59753100D01*
X117581703Y-59598228D01*
X117549000Y-59433816D01*
X117549000Y-59266184D01*
X117581703Y-59101772D01*
X117645853Y-58946900D01*
X117738985Y-58807519D01*
X117857519Y-58688985D01*
X117996900Y-58595853D01*
X118151772Y-58531703D01*
X118316184Y-58499000D01*
X118483816Y-58499000D01*
X118648228Y-58531703D01*
G37*
G36*
X105648228Y-58431703D02*
G01*
X105803100Y-58495853D01*
X105942481Y-58588985D01*
X106061015Y-58707519D01*
X106154147Y-58846900D01*
X106218297Y-59001772D01*
X106251000Y-59166184D01*
X106251000Y-59333816D01*
X106218297Y-59498228D01*
X106154147Y-59653100D01*
X106061015Y-59792481D01*
X105942481Y-59911015D01*
X105803100Y-60004147D01*
X105648228Y-60068297D01*
X105483816Y-60101000D01*
X105316184Y-60101000D01*
X105151772Y-60068297D01*
X104996900Y-60004147D01*
X104857519Y-59911015D01*
X104738985Y-59792481D01*
X104645853Y-59653100D01*
X104581703Y-59498228D01*
X104549000Y-59333816D01*
X104549000Y-59166184D01*
X104581703Y-59001772D01*
X104645853Y-58846900D01*
X104738985Y-58707519D01*
X104857519Y-58588985D01*
X104996900Y-58495853D01*
X105151772Y-58431703D01*
X105316184Y-58399000D01*
X105483816Y-58399000D01*
X105648228Y-58431703D01*
G37*
G36*
X129318228Y-56831703D02*
G01*
X129473100Y-56895853D01*
X129612481Y-56988985D01*
X129731015Y-57107519D01*
X129824147Y-57246900D01*
X129888297Y-57401772D01*
X129921000Y-57566184D01*
X129921000Y-57733816D01*
X129888297Y-57898228D01*
X129824147Y-58053100D01*
X129731015Y-58192481D01*
X129612481Y-58311015D01*
X129473100Y-58404147D01*
X129318228Y-58468297D01*
X129153816Y-58501000D01*
X128986184Y-58501000D01*
X128821772Y-58468297D01*
X128666900Y-58404147D01*
X128527519Y-58311015D01*
X128408985Y-58192481D01*
X128315853Y-58053100D01*
X128251703Y-57898228D01*
X128219000Y-57733816D01*
X128219000Y-57566184D01*
X128251703Y-57401772D01*
X128315853Y-57246900D01*
X128408985Y-57107519D01*
X128527519Y-56988985D01*
X128666900Y-56895853D01*
X128821772Y-56831703D01*
X128986184Y-56799000D01*
X129153816Y-56799000D01*
X129318228Y-56831703D01*
G37*
G36*
X122301000Y-58501000D02*
G01*
X120599000Y-58501000D01*
X120599000Y-56799000D01*
X122301000Y-56799000D01*
X122301000Y-58501000D01*
G37*
G36*
X108348228Y-56171703D02*
G01*
X108503100Y-56235853D01*
X108642481Y-56328985D01*
X108761015Y-56447519D01*
X108854147Y-56586900D01*
X108918297Y-56741772D01*
X108951000Y-56906184D01*
X108951000Y-57073816D01*
X108918297Y-57238228D01*
X108854147Y-57393100D01*
X108761015Y-57532481D01*
X108642481Y-57651015D01*
X108503100Y-57744147D01*
X108348228Y-57808297D01*
X108183816Y-57841000D01*
X108016184Y-57841000D01*
X107851772Y-57808297D01*
X107696900Y-57744147D01*
X107557519Y-57651015D01*
X107438985Y-57532481D01*
X107345853Y-57393100D01*
X107281703Y-57238228D01*
X107249000Y-57073816D01*
X107249000Y-56906184D01*
X107281703Y-56741772D01*
X107345853Y-56586900D01*
X107438985Y-56447519D01*
X107557519Y-56328985D01*
X107696900Y-56235853D01*
X107851772Y-56171703D01*
X108016184Y-56139000D01*
X108183816Y-56139000D01*
X108348228Y-56171703D01*
G37*
G36*
X115968228Y-56171703D02*
G01*
X116123100Y-56235853D01*
X116262481Y-56328985D01*
X116381015Y-56447519D01*
X116474147Y-56586900D01*
X116538297Y-56741772D01*
X116571000Y-56906184D01*
X116571000Y-57073816D01*
X116538297Y-57238228D01*
X116474147Y-57393100D01*
X116381015Y-57532481D01*
X116262481Y-57651015D01*
X116123100Y-57744147D01*
X115968228Y-57808297D01*
X115803816Y-57841000D01*
X115636184Y-57841000D01*
X115471772Y-57808297D01*
X115316900Y-57744147D01*
X115177519Y-57651015D01*
X115058985Y-57532481D01*
X114965853Y-57393100D01*
X114901703Y-57238228D01*
X114869000Y-57073816D01*
X114869000Y-56906184D01*
X114901703Y-56741772D01*
X114965853Y-56586900D01*
X115058985Y-56447519D01*
X115177519Y-56328985D01*
X115316900Y-56235853D01*
X115471772Y-56171703D01*
X115636184Y-56139000D01*
X115803816Y-56139000D01*
X115968228Y-56171703D01*
G37*
G36*
X126398228Y-53681703D02*
G01*
X126553100Y-53745853D01*
X126692481Y-53838985D01*
X126811015Y-53957519D01*
X126904147Y-54096900D01*
X126968297Y-54251772D01*
X127001000Y-54416184D01*
X127001000Y-54583816D01*
X126968297Y-54748228D01*
X126904147Y-54903100D01*
X126811015Y-55042481D01*
X126692481Y-55161015D01*
X126553100Y-55254147D01*
X126398228Y-55318297D01*
X126233816Y-55351000D01*
X126066184Y-55351000D01*
X125901772Y-55318297D01*
X125746900Y-55254147D01*
X125607519Y-55161015D01*
X125488985Y-55042481D01*
X125395853Y-54903100D01*
X125331703Y-54748228D01*
X125299000Y-54583816D01*
X125299000Y-54416184D01*
X125331703Y-54251772D01*
X125395853Y-54096900D01*
X125488985Y-53957519D01*
X125607519Y-53838985D01*
X125746900Y-53745853D01*
X125901772Y-53681703D01*
X126066184Y-53649000D01*
X126233816Y-53649000D01*
X126398228Y-53681703D01*
G37*
G36*
X128898228Y-53681703D02*
G01*
X129053100Y-53745853D01*
X129192481Y-53838985D01*
X129311015Y-53957519D01*
X129404147Y-54096900D01*
X129468297Y-54251772D01*
X129501000Y-54416184D01*
X129501000Y-54583816D01*
X129468297Y-54748228D01*
X129404147Y-54903100D01*
X129311015Y-55042481D01*
X129192481Y-55161015D01*
X129053100Y-55254147D01*
X128898228Y-55318297D01*
X128733816Y-55351000D01*
X128566184Y-55351000D01*
X128401772Y-55318297D01*
X128246900Y-55254147D01*
X128107519Y-55161015D01*
X127988985Y-55042481D01*
X127895853Y-54903100D01*
X127831703Y-54748228D01*
X127799000Y-54583816D01*
X127799000Y-54416184D01*
X127831703Y-54251772D01*
X127895853Y-54096900D01*
X127988985Y-53957519D01*
X128107519Y-53838985D01*
X128246900Y-53745853D01*
X128401772Y-53681703D01*
X128566184Y-53649000D01*
X128733816Y-53649000D01*
X128898228Y-53681703D01*
G37*
G36*
X108951000Y-55301000D02*
G01*
X107249000Y-55301000D01*
X107249000Y-53599000D01*
X108951000Y-53599000D01*
X108951000Y-55301000D01*
G37*
G36*
X121148228Y-53631703D02*
G01*
X121303100Y-53695853D01*
X121442481Y-53788985D01*
X121561015Y-53907519D01*
X121654147Y-54046900D01*
X121718297Y-54201772D01*
X121751000Y-54366184D01*
X121751000Y-54533816D01*
X121718297Y-54698228D01*
X121654147Y-54853100D01*
X121561015Y-54992481D01*
X121442481Y-55111015D01*
X121303100Y-55204147D01*
X121148228Y-55268297D01*
X120983816Y-55301000D01*
X120816184Y-55301000D01*
X120651772Y-55268297D01*
X120496900Y-55204147D01*
X120357519Y-55111015D01*
X120238985Y-54992481D01*
X120145853Y-54853100D01*
X120081703Y-54698228D01*
X120049000Y-54533816D01*
X120049000Y-54366184D01*
X120081703Y-54201772D01*
X120145853Y-54046900D01*
X120238985Y-53907519D01*
X120357519Y-53788985D01*
X120496900Y-53695853D01*
X120651772Y-53631703D01*
X120816184Y-53599000D01*
X120983816Y-53599000D01*
X121148228Y-53631703D01*
G37*
G36*
X115968228Y-53631703D02*
G01*
X116123100Y-53695853D01*
X116262481Y-53788985D01*
X116381015Y-53907519D01*
X116474147Y-54046900D01*
X116538297Y-54201772D01*
X116571000Y-54366184D01*
X116571000Y-54533816D01*
X116538297Y-54698228D01*
X116474147Y-54853100D01*
X116381015Y-54992481D01*
X116262481Y-55111015D01*
X116123100Y-55204147D01*
X115968228Y-55268297D01*
X115803816Y-55301000D01*
X115636184Y-55301000D01*
X115471772Y-55268297D01*
X115316900Y-55204147D01*
X115177519Y-55111015D01*
X115058985Y-54992481D01*
X114965853Y-54853100D01*
X114901703Y-54698228D01*
X114869000Y-54533816D01*
X114869000Y-54366184D01*
X114901703Y-54201772D01*
X114965853Y-54046900D01*
X115058985Y-53907519D01*
X115177519Y-53788985D01*
X115316900Y-53695853D01*
X115471772Y-53631703D01*
X115636184Y-53599000D01*
X115803816Y-53599000D01*
X115968228Y-53631703D01*
G37*
G36*
X118648228Y-53631703D02*
G01*
X118803100Y-53695853D01*
X118942481Y-53788985D01*
X119061015Y-53907519D01*
X119154147Y-54046900D01*
X119218297Y-54201772D01*
X119251000Y-54366184D01*
X119251000Y-54533816D01*
X119218297Y-54698228D01*
X119154147Y-54853100D01*
X119061015Y-54992481D01*
X118942481Y-55111015D01*
X118803100Y-55204147D01*
X118648228Y-55268297D01*
X118483816Y-55301000D01*
X118316184Y-55301000D01*
X118151772Y-55268297D01*
X117996900Y-55204147D01*
X117857519Y-55111015D01*
X117738985Y-54992481D01*
X117645853Y-54853100D01*
X117581703Y-54698228D01*
X117549000Y-54533816D01*
X117549000Y-54366184D01*
X117581703Y-54201772D01*
X117645853Y-54046900D01*
X117738985Y-53907519D01*
X117857519Y-53788985D01*
X117996900Y-53695853D01*
X118151772Y-53631703D01*
X118316184Y-53599000D01*
X118483816Y-53599000D01*
X118648228Y-53631703D01*
G37*
G36*
X135501000Y-53801000D02*
G01*
X133799000Y-53801000D01*
X133799000Y-52099000D01*
X135501000Y-52099000D01*
X135501000Y-53801000D01*
G37*
G36*
X143501000Y-53051000D02*
G01*
X141699000Y-53051000D01*
X141699000Y-51249000D01*
X143501000Y-51249000D01*
X143501000Y-53051000D01*
G37*
G36*
X100525256Y-48741298D02*
G01*
X100631579Y-48762447D01*
X100932042Y-48886903D01*
X101202451Y-49067585D01*
X101432415Y-49297549D01*
X101613097Y-49567958D01*
X101731207Y-49853100D01*
X101737553Y-49868422D01*
X101771043Y-50036784D01*
X101801000Y-50187391D01*
X101801000Y-50512609D01*
X101737553Y-50831579D01*
X101613097Y-51132042D01*
X101432415Y-51402451D01*
X101202451Y-51632415D01*
X100932042Y-51813097D01*
X100631579Y-51937553D01*
X100525256Y-51958702D01*
X100312611Y-52001000D01*
X99987389Y-52001000D01*
X99774744Y-51958702D01*
X99668421Y-51937553D01*
X99367958Y-51813097D01*
X99097549Y-51632415D01*
X98867585Y-51402451D01*
X98686903Y-51132042D01*
X98562447Y-50831579D01*
X98499000Y-50512609D01*
X98499000Y-50187391D01*
X98528958Y-50036784D01*
X98562447Y-49868422D01*
X98568794Y-49853100D01*
X98686903Y-49567958D01*
X98867585Y-49297549D01*
X99097549Y-49067585D01*
X99367958Y-48886903D01*
X99668421Y-48762447D01*
X99774744Y-48741298D01*
X99987389Y-48699000D01*
X100312611Y-48699000D01*
X100525256Y-48741298D01*
G37*
G36*
X142713512Y-48713927D02*
G01*
X142862812Y-48743624D01*
X143026784Y-48811544D01*
X143174354Y-48910147D01*
X143299853Y-49035646D01*
X143398456Y-49183216D01*
X143466376Y-49347188D01*
X143501000Y-49521259D01*
X143501000Y-49698741D01*
X143466376Y-49872812D01*
X143398456Y-50036784D01*
X143299853Y-50184354D01*
X143174354Y-50309853D01*
X143026784Y-50408456D01*
X142862812Y-50476376D01*
X142713512Y-50506073D01*
X142688742Y-50511000D01*
X142511258Y-50511000D01*
X142486488Y-50506073D01*
X142337188Y-50476376D01*
X142173216Y-50408456D01*
X142025646Y-50309853D01*
X141900147Y-50184354D01*
X141801544Y-50036784D01*
X141733624Y-49872812D01*
X141699000Y-49698741D01*
X141699000Y-49521259D01*
X141733624Y-49347188D01*
X141801544Y-49183216D01*
X141900147Y-49035646D01*
X142025646Y-48910147D01*
X142173216Y-48811544D01*
X142337188Y-48743624D01*
X142486488Y-48713927D01*
X142511258Y-48709000D01*
X142688742Y-48709000D01*
X142713512Y-48713927D01*
G37*
G36*
X110753512Y-48653927D02*
G01*
X110902812Y-48683624D01*
X111066784Y-48751544D01*
X111214354Y-48850147D01*
X111339853Y-48975646D01*
X111438456Y-49123216D01*
X111506376Y-49287188D01*
X111541000Y-49461259D01*
X111541000Y-49638741D01*
X111506376Y-49812812D01*
X111438456Y-49976784D01*
X111339853Y-50124354D01*
X111214354Y-50249853D01*
X111066784Y-50348456D01*
X110902812Y-50416376D01*
X110753512Y-50446073D01*
X110728742Y-50451000D01*
X110551258Y-50451000D01*
X110526488Y-50446073D01*
X110377188Y-50416376D01*
X110213216Y-50348456D01*
X110065646Y-50249853D01*
X109940147Y-50124354D01*
X109841544Y-49976784D01*
X109773624Y-49812812D01*
X109739000Y-49638741D01*
X109739000Y-49461259D01*
X109773624Y-49287188D01*
X109841544Y-49123216D01*
X109940147Y-48975646D01*
X110065646Y-48850147D01*
X110213216Y-48751544D01*
X110377188Y-48683624D01*
X110526488Y-48653927D01*
X110551258Y-48649000D01*
X110728742Y-48649000D01*
X110753512Y-48653927D01*
G37*
G36*
X115833512Y-48653927D02*
G01*
X115982812Y-48683624D01*
X116146784Y-48751544D01*
X116294354Y-48850147D01*
X116419853Y-48975646D01*
X116518456Y-49123216D01*
X116586376Y-49287188D01*
X116621000Y-49461259D01*
X116621000Y-49638741D01*
X116586376Y-49812812D01*
X116518456Y-49976784D01*
X116419853Y-50124354D01*
X116294354Y-50249853D01*
X116146784Y-50348456D01*
X115982812Y-50416376D01*
X115833512Y-50446073D01*
X115808742Y-50451000D01*
X115631258Y-50451000D01*
X115606488Y-50446073D01*
X115457188Y-50416376D01*
X115293216Y-50348456D01*
X115145646Y-50249853D01*
X115020147Y-50124354D01*
X114921544Y-49976784D01*
X114853624Y-49812812D01*
X114819000Y-49638741D01*
X114819000Y-49461259D01*
X114853624Y-49287188D01*
X114921544Y-49123216D01*
X115020147Y-48975646D01*
X115145646Y-48850147D01*
X115293216Y-48751544D01*
X115457188Y-48683624D01*
X115606488Y-48653927D01*
X115631258Y-48649000D01*
X115808742Y-48649000D01*
X115833512Y-48653927D01*
G37*
G36*
X113293512Y-48653927D02*
G01*
X113442812Y-48683624D01*
X113606784Y-48751544D01*
X113754354Y-48850147D01*
X113879853Y-48975646D01*
X113978456Y-49123216D01*
X114046376Y-49287188D01*
X114081000Y-49461259D01*
X114081000Y-49638741D01*
X114046376Y-49812812D01*
X113978456Y-49976784D01*
X113879853Y-50124354D01*
X113754354Y-50249853D01*
X113606784Y-50348456D01*
X113442812Y-50416376D01*
X113293512Y-50446073D01*
X113268742Y-50451000D01*
X113091258Y-50451000D01*
X113066488Y-50446073D01*
X112917188Y-50416376D01*
X112753216Y-50348456D01*
X112605646Y-50249853D01*
X112480147Y-50124354D01*
X112381544Y-49976784D01*
X112313624Y-49812812D01*
X112279000Y-49638741D01*
X112279000Y-49461259D01*
X112313624Y-49287188D01*
X112381544Y-49123216D01*
X112480147Y-48975646D01*
X112605646Y-48850147D01*
X112753216Y-48751544D01*
X112917188Y-48683624D01*
X113066488Y-48653927D01*
X113091258Y-48649000D01*
X113268742Y-48649000D01*
X113293512Y-48653927D01*
G37*
G36*
X109001000Y-50451000D02*
G01*
X107199000Y-50451000D01*
X107199000Y-48649000D01*
X109001000Y-48649000D01*
X109001000Y-50451000D01*
G37*
G36*
X134898228Y-48631703D02*
G01*
X135053100Y-48695853D01*
X135192481Y-48788985D01*
X135311015Y-48907519D01*
X135404147Y-49046900D01*
X135468297Y-49201772D01*
X135501000Y-49366184D01*
X135501000Y-49533816D01*
X135468297Y-49698228D01*
X135404147Y-49853100D01*
X135311015Y-49992481D01*
X135192481Y-50111015D01*
X135053100Y-50204147D01*
X134898228Y-50268297D01*
X134733816Y-50301000D01*
X134566184Y-50301000D01*
X134401772Y-50268297D01*
X134246900Y-50204147D01*
X134107519Y-50111015D01*
X133988985Y-49992481D01*
X133895853Y-49853100D01*
X133831703Y-49698228D01*
X133799000Y-49533816D01*
X133799000Y-49366184D01*
X133831703Y-49201772D01*
X133895853Y-49046900D01*
X133988985Y-48907519D01*
X134107519Y-48788985D01*
X134246900Y-48695853D01*
X134401772Y-48631703D01*
X134566184Y-48599000D01*
X134733816Y-48599000D01*
X134898228Y-48631703D01*
G37*
M02*
